<?xml version="1.0" encoding="utf-8"?>
<!-- Generator: Adobe Illustrator 25.0.0, SVG Export Plug-In . SVG Version: 6.00 Build 0)  -->
<svg version="1.1" xmlns="http://www.w3.org/2000/svg" xmlns:xlink="http://www.w3.org/1999/xlink" x="0px" y="0px"
	 viewBox="0 0 500 500" style="enable-background:new 0 0 500 500;" xml:space="preserve">
<style type="text/css">
	.st0{display:none;fill:#EBEBEB;}
	.st1{display:none;}
	.st2{display:inline;fill:#F0F0F0;}
	.st3{display:inline;fill:#FFFFFF;}
	.st4{display:inline;fill:#E6E6E6;}
	.st5{display:inline;}
	.st6{fill:#E0E0E0;}
	.st7{fill:#E6E6E6;}
	.st8{fill:#F0F0F0;}
	.st9{fill:#407BFF;}
	.st10{opacity:0.9;fill:#FFFFFF;}
	.st11{fill:#F5F5F5;}
	.st12{display:none;fill:#263238;}
	.st13{fill:#263238;}
	.st14{fill:#7F3E3B;}
	.st15{fill:#F2CF05;}
	.st16{opacity:0.2;}
	.st17{display:none;fill:#7F3E3B;}
	.st18{fill:#0080FF;}
	.st19{display:none;fill:#FFFFFF;}
	.st20{fill:#630F0F;}
	.st21{opacity:0.7;fill:#FFFFFF;}
	.st22{display:inline;fill:#407BFF;}
	.st23{display:inline;opacity:0.7;fill:#FFFFFF;}
	.st24{fill:#ED847E;}
	.st25{display:none;fill:#407BFF;}
	.st26{fill:#FFC3BD;}
	.st27{opacity:0.3;}
	.st28{fill:#FFC3BD;stroke:#FFC3BD;stroke-miterlimit:10;}
</style>
<g id="Background_Complete">
	<g>
		<rect y="382.4" class="st0" width="500" height="0.25"/>
		<rect x="416.78" y="398.49" class="st0" width="33.12" height="0.25"/>
		<rect x="322.53" y="401.21" class="st0" width="8.69" height="0.25"/>
		<rect x="396.59" y="389.21" class="st0" width="19.19" height="0.25"/>
		<rect x="52.46" y="390.89" class="st0" width="43.19" height="0.25"/>
		<rect x="104.56" y="390.89" class="st0" width="6.33" height="0.25"/>
		<rect x="131.47" y="395.11" class="st0" width="93.68" height="0.25"/>
		<path class="st0" d="M237.01,337.8H43.92c-3.15,0-5.71-2.56-5.71-5.71V60.66c0-3.15,2.56-5.71,5.71-5.71h193.1
			c3.15,0,5.71,2.56,5.71,5.71v271.43C242.72,335.24,240.16,337.8,237.01,337.8z M43.92,55.2c-3.01,0-5.46,2.45-5.46,5.46v271.43
			c0,3.01,2.45,5.46,5.46,5.46h193.1c3.01,0,5.46-2.45,5.46-5.46V60.66c0-3.01-2.45-5.46-5.46-5.46H43.92z"/>
		<path class="st0" d="M453.31,337.8h-193.1c-3.15,0-5.71-2.56-5.71-5.71V60.66c0-3.15,2.56-5.71,5.71-5.71h193.1
			c3.15,0,5.71,2.56,5.71,5.71v271.43C459.02,335.24,456.46,337.8,453.31,337.8z M260.21,55.2c-3.01,0-5.46,2.45-5.46,5.46v271.43
			c0,3.01,2.45,5.46,5.46,5.46h193.1c3.01,0,5.46-2.45,5.46-5.46V60.66c0-3.01-2.45-5.46-5.46-5.46H260.21z"/>
	</g>
	<g>
		<g class="st1">
			
				<rect x="81.39" y="103.92" transform="matrix(-1 -1.224647e-16 1.224647e-16 -1 501.7747 314.7559)" class="st2" width="339" height="106.91"/>
			
				<rect x="86.3" y="108.84" transform="matrix(-1 -1.224647e-16 1.224647e-16 -1 501.7747 314.7559)" class="st3" width="329.17" height="97.08"/>
			<rect x="79.61" y="103.92" class="st4" width="1.77" height="106.91"/>
		</g>
		<g class="st1">
			
				<rect x="220.71" y="283.33" transform="matrix(-1 -1.224647e-16 1.224647e-16 -1 447.983 665.7311)" class="st4" width="6.57" height="99.06"/>
			
				<rect x="218.64" y="283.33" transform="matrix(-1 -1.224647e-16 1.224647e-16 -1 441.8318 665.7311)" class="st2" width="4.56" height="99.06"/>
			<rect x="217.22" y="283.33" class="st2" width="173.35" height="11.17"/>
			
				<rect x="393.51" y="294.5" transform="matrix(-1 -1.224647e-16 1.224647e-16 -1 793.5929 676.8978)" class="st4" width="6.57" height="87.89"/>
			
				<rect x="391.44" y="294.5" transform="matrix(-1 -1.224647e-16 1.224647e-16 -1 787.4415 676.8978)" class="st2" width="4.56" height="87.89"/>
			
				<rect x="435.07" y="294.5" transform="matrix(-1 -1.224647e-16 1.224647e-16 -1 876.7145 676.8978)" class="st4" width="6.57" height="87.89"/>
			
				<rect x="433" y="294.5" transform="matrix(-1 -1.224647e-16 1.224647e-16 -1 870.5631 676.8978)" class="st4" width="4.56" height="87.89"/>
			
				<rect x="262.27" y="294.5" transform="matrix(-1 -1.224647e-16 1.224647e-16 -1 531.1048 676.8978)" class="st4" width="6.57" height="87.89"/>
			
				<rect x="260.2" y="294.5" transform="matrix(-1 -1.224647e-16 1.224647e-16 -1 524.9534 676.8978)" class="st4" width="4.56" height="87.89"/>
			
				<rect x="390.57" y="283.33" transform="matrix(-1 -1.224647e-16 1.224647e-16 -1 832.2135 577.8363)" class="st4" width="51.07" height="11.17"/>
		</g>
		<g class="st1">
			<path class="st4" d="M290.81,236.62h57.73c8.96,0,17.05,7.76,19.17,18.39l6.65,33.44l13.67-0.05h0.04
				c6.51,0,12.11,5.57,13.33,13.28l1.82,11.45c2.75,0.48,5.11,3.01,5.77,6.35H308.9c-8.96,0-17.03-7.75-19.15-18.38l-9.55-48.02
				C278.5,244.49,283.57,236.62,290.81,236.62z M389.51,313.04h10.1l-1.69-10.56c-0.9-5.68-5.04-9.8-9.84-9.8h-0.04l-12.82,0.05
				l1.62,8.15C378.23,307.91,383.58,313.04,389.51,313.04z"/>
			<g class="st5">
				<polygon class="st6" points="310.6,319.48 307.71,319.48 302.25,382.4 305.13,382.4 				"/>
				<polygon class="st6" points="321.42,319.48 318.54,319.48 313.07,382.4 315.96,382.4 				"/>
			</g>
			<g class="st5">
				<polygon class="st6" points="396.46,319.48 399.34,319.48 404.81,382.4 401.92,382.4 				"/>
				<polygon class="st6" points="385.63,319.48 388.52,319.48 393.98,382.4 391.1,382.4 				"/>
			</g>
		</g>
		<g class="st1">
			<g class="st5">
				<path class="st7" d="M256.69,263.45c4.91,5.48,22.48,11.19,27.68-6.03c3.78-12.53-17.36-21.79-30-22.32
					c-13.63-0.58-21.68,4.22-21.68,4.22S243.52,248.74,256.69,263.45z"/>
				<path class="st7" d="M284.37,267.1c-6.9,0.74-18.64-4.54-13.99-19.04c4.64-14.49,14.15-15.84,20.43-17.05
					c8.01-1.54,24.02,5,24.02,5S291.28,266.37,284.37,267.1z"/>
				<path class="st7" d="M266.32,240.62c8.69,3.95,15.98,5.29,11.87-7.01c-4.12-12.3-9.13-18.21-17.29-20.71
					c-10.41-3.19-22.76,3.66-22.76,3.66S257.62,236.67,266.32,240.62z"/>
				<path class="st7" d="M278.12,239.79c-6.64,1.96-11.87,1.55-6.92-10.3c4.95-11.85,8.25-13.34,13.92-15.61
					c10.49-4.2,19.28,3.34,19.28,3.34S284.76,237.83,278.12,239.79z"/>
				<path class="st7" d="M263.67,220.23c7.21,6.32,13.85,10.32,13.56,0.5c-0.3-9.82-5.4-18.62-13.16-22.58
					c-5.34-2.73-17.15-1.49-17.15-1.49S256.46,213.92,263.67,220.23z"/>
				<path class="st7" d="M282.26,218.59c-4.72,3.76-8.81,5.74-7.33-2.23c1.49-7.98,4.12-10.13,8.64-12.94
					c5.76-3.59,12.04-1.85,12.04-1.85S286.98,214.83,282.26,218.59z"/>
			</g>
			<g class="st5">
				<polygon class="st8" points="249.78,263.26 297.17,263.26 290.93,283.33 256.02,283.33 				"/>
			</g>
		</g>
	</g>
</g>
<g id="Background_Simple" class="st1">
	<g class="st5">
		<path class="st9" d="M262,156.1c42.34-6.24,81.06-25.43,121.51,2.24c31.89,21.82,42.29,64.15,27.34,99.36
			c-17.46,41.1-59.5,50.62-93.14,73.59c-29.96,20.46-66.57,54.67-105.52,33.34c-33.12-18.13-29.12-67.61-66.62-86.48
			c-38.78-19.51-70.38-17.45-76.08-73.13c-4.23-41.4,18.75-83.11,64.49-82.5C179.34,123.11,213.24,163.27,262,156.1z"/>
		<path class="st10" d="M262,156.1c42.34-6.24,81.06-25.43,121.51,2.24c31.89,21.82,42.29,64.15,27.34,99.36
			c-17.46,41.1-59.5,50.62-93.14,73.59c-29.96,20.46-66.57,54.67-105.52,33.34c-33.12-18.13-29.12-67.61-66.62-86.48
			c-38.78-19.51-70.38-17.45-76.08-73.13c-4.23-41.4,18.75-83.11,64.49-82.5C179.34,123.11,213.24,163.27,262,156.1z"/>
	</g>
</g>
<g id="Shadow_1_">
	<ellipse id="_x3C_Path_x3E__239_" class="st11" cx="250" cy="416.24" rx="193.89" ry="11.32"/>
</g>
<g id="Character_2">
	<g>
		<path class="st12" d="M339.09,415.25C339.09,415.25,339.09,415.25,339.09,415.25c-0.32,0-31.89-0.5-32.44-4.34
			c-0.12-0.8,0.58-1.23,0.81-1.37c2.47-1.53,38.13-2.31,71.17-2.18c15.94,0.06,68.14,0.53,70.81,3.92c0.26,0.33,0.22,0.69,0.19,0.83
			c-0.11,0.5-0.29,1.33-7.34,2.57c-0.19,0.03-0.37-0.16-0.39-0.43c-0.02-0.27,0.11-0.52,0.31-0.56c4.88-0.86,6.25-1.5,6.64-1.79
			c-2.48-1.95-30.25-3.36-69.91-3.52c-36.51-0.16-69.11,0.81-71.19,2.09c-0.21,0.13-0.32,0.24-0.37,0.3
			c1.14,1.68,15.78,3.3,31.72,3.5c0.2,0,0.35,0.23,0.35,0.5C339.44,415.03,339.28,415.25,339.09,415.25z"/>
		<g>
			<path class="st13" d="M313.07,151.46c7.82-10.44,18.65,0.76,17.67,12.61c4.75,0.72,5.02,7.29,2.98,10.18
				c2.59,1.67,1.41,10.96-3.15,8.88c-0.86,4.31-8.14,6.59-9.53,2.53c-3.18,4-9.66,3.6-10.37-2.07c-5.26,1.56-6.45-8.68-3.4-10.62
				c-3.04,0.73-2.31-7.21,0.39-6.23C306.73,163.46,307.3,149.23,313.07,151.46z"/>
			<path class="st14" d="M304.73,207.83c0.73,1.18,1.3,2.37,1.89,3.63c0.55,1.27,1.06,2.6,1.51,3.99c0.46,1.39,0.83,2.86,1.11,4.45
				c0.13,0.81,0.25,1.61,0.32,2.49l0.06,0.65c0,0.01,0.02,0.22,0.02,0.38c0,0.17-0.01,0.38-0.04,0.62
				c-0.06,0.48-0.24,1.23-0.67,2.02c-0.43,0.81-0.99,1.42-1.38,1.76c-0.41,0.36-0.71,0.53-0.95,0.67c-0.49,0.25-0.8,0.34-1.08,0.41
				c-1.07,0.24-1.73,0.17-2.45,0.13c-0.69-0.05-1.34-0.15-1.97-0.27c-1.25-0.25-2.45-0.54-3.61-0.92c-1.16-0.37-2.3-0.76-3.43-1.18
				c-1.11-0.46-2.22-0.9-3.29-1.43c-0.53-0.27-0.56-1.2-0.06-2.09c0.44-0.78,1.14-1.26,1.66-1.19l0,0l3.66,0.51
				c1.21,0.18,2.43,0.35,3.65,0.48c1.23,0.12,2.44,0.27,3.66,0.32c0.61,0.03,1.21,0.05,1.8,0.02c0.57-0.02,1.21-0.1,1.54-0.22
				c0.07-0.02,0.11-0.06-0.01,0c-0.07,0.04-0.18,0.09-0.42,0.29c-0.22,0.19-0.61,0.61-0.93,1.19c-0.31,0.57-0.42,1.09-0.46,1.35
				c-0.02,0.13-0.02,0.23-0.02,0.3c0,0.05,0.01,0.16,0,0.08l-0.08-0.49c-0.09-0.66-0.26-1.3-0.41-1.95
				c-0.31-1.29-0.75-2.51-1.18-3.74c-0.45-1.22-0.95-2.39-1.5-3.53c-0.51-1.16-1.12-2.29-1.67-3.33l-0.03-0.06
				c-0.62-1.16-0.04-3.29,1.29-4.74C302.55,207.05,304.08,206.79,304.73,207.83z"/>
			<path class="st15" d="M306.33,193.83c-6.32,4.19-6.4,16.26-6.4,16.26l7.76,5.3c0,0,4.69-10.18,4.11-14.62
				C311.2,196.14,309.88,191.48,306.33,193.83z"/>
			<path class="st16" d="M308.32,202.93c-1.37,1.19-3.46,5.63-4.45,9.85l3.83,2.62c0,0,2.94-6.4,3.87-11.26
				C311.18,202.71,310.05,201.57,308.32,202.93z"/>
			<path class="st17" d="M297.12,191.4c0.03-1.12-0.58-2.06-1.38-2.1l-2.42-0.13c-0.7-0.04-1.32,0.65-1.46,1.62l-0.27,1.88
				c-0.09,0.64-0.1,1.31-0.02,1.95c0.24,1.97,0.23,2.85,0.75,5.95l2.64,0.75c2.76-2.65,2.07-7.14,2.07-7.14L297.12,191.4z"/>
			<polygon class="st14" points="329.7,408.68 323.94,409.45 322.84,390.7 328.6,389.93 			"/>
			<polygon class="st14" points="367.07,392.45 362.24,396.84 355.16,380.7 359.99,376.32 			"/>
			<path class="st18" d="M361.16,395.85l4.13-7.07c0.15-0.26,0.4-0.32,0.6-0.15l4.42,3.81c0.46,0.4,0.56,1.35,0.2,1.93
				c-1.47,2.43-2.26,3.5-4.08,6.61c-1.12,1.91-3.39,6.37-4.93,9.01c-1.51,2.58-3.47,0.63-3-0.67c2.13-5.81,2.33-9.3,2.31-12.11
				C360.82,396.71,360.94,396.23,361.16,395.85z"/>
			<path class="st18" d="M323.07,407.02h6.84c0.25,0,0.47,0.24,0.54,0.59l1.49,7.66c0.15,0.79-0.26,1.52-0.83,1.53
				c-2.41,0.03-3.55,0.02-6.56,0.02c-1.85,0-6.64,0-9.2,0c-2.5,0-3.02-3.57-1.99-3.9c4.64-1.45,7.31-3.45,8.75-5.36
				C322.36,407.2,322.71,407.02,323.07,407.02z"/>
			<polygon class="st16" points="322.84,390.7 323.41,400.37 329.22,400.37 328.61,389.93 			"/>
			<polygon class="st16" points="360,376.32 355.16,380.71 358.81,389.02 363.64,384.64 			"/>
			<path class="st15" d="M304.5,198.67c0.19,5.39,1.43,17.42,6.22,44.22l23.34-2.85c-1.11-12.23-1.64-20.2,0.46-42.92
				c0.35-3.82-1.67-7.28-4.39-7.46c-1.52-0.1-3.24-0.14-4.96-0.05c-3.94,0.21-7.17,0.43-10.6,1.3c-2.58,0.65-5.38,1.67-7.32,2.43
				C305.56,193.99,304.42,196.2,304.5,198.67z"/>
			<path class="st14" d="M323.08,172.86c-0.37,4.9-0.5,13.82,2.08,16.75c0,0-2.76,3.98-8.34,8.38c-4.06-3.97-2.26-7.08-2.26-7.08
				c3.72-1.75,3.38-5.73,2.49-9.39L323.08,172.86z"/>
			<path class="st16" d="M320.62,176.39l-3.57,5.12c0.21,0.87,0.39,1.75,0.49,2.62c1.43-0.47,3.51-2.58,3.53-4.75
				C321.09,178.3,320.78,176.88,320.62,176.39z"/>
			<path class="st14" d="M326.13,165.2c-1.45,7.83-1.94,11.19-5.34,14.47c-5.11,4.94-11.6,0.71-11.84-7.57
				c-0.21-7.46,2.19-19.02,8.12-20.65C322.91,149.85,327.58,157.37,326.13,165.2z"/>
			<path class="st13" d="M313.57,152.24c1.86,4.46,6.54,8.88,9.43,8.83c-2,2.58-3.01,9.39,2.3,9.99c3.24-6.07,3.39-10.53,2.59-12.74
				C327.09,156.12,320.84,145.79,313.57,152.24z"/>
			<path class="st19" d="M320.21,178.74l-0.06-1c2.45-0.32,4.27-1.88,4.87-4.19c0.35-1.33,0.2-2.69-0.39-3.55
				c-0.85-1.24-2.01-0.21-3.55,1.37c-0.62,0.64-1.21,1.25-1.75,1.54l-0.25-0.93c0.45-0.25,1.01-0.81,1.59-1.42
				c1.4-1.43,3.13-3.22,4.48-1.26c0.78,1.14,0.99,2.9,0.54,4.59C324.98,176.58,322.93,178.39,320.21,178.74z"/>
			<path class="st14" d="M326.59,171.84c-0.54,1.49-1.53,2.49-2.46,2.88c-1.4,0.6-2.14-1.17-1.77-3.07
				c0.33-1.71,1.46-4.07,2.88-3.84C326.64,168.05,327.21,170.14,326.59,171.84z"/>
			<path class="st9" d="M310.72,242.89c0,0-2.7,44.31,1.8,79.35c3.01,23.47,9.03,75.33,9.03,75.33l8.91-0.36
				c-1.39-26.01-1.47-61.81-4.7-83.3c0.57-29.41,2.06-73.11,2.06-73.11L310.72,242.89z"/>
			<path class="st16" d="M322.93,265.41c-3.25,8.76-3.68,29.73,2.86,46.64c0.25-12.08,0.63-26.27,1-38.8L322.93,265.41z"/>
			<polygon class="st18" points="320.93,398.3 331.55,397.85 330.84,392.51 319.97,393.35 			"/>
			<path class="st9" d="M315.82,242.37c0,0,6.91,47.82,16.36,76.82c7.63,23.43,23.66,67.26,23.66,67.26l7.2-4.89
				c0,0-10.9-50.88-18.25-67.27c-5.84-25.57-2.35-60.44-10.73-74.26L315.82,242.37z"/>
			<polygon class="st18" points="355.47,388.56 364.23,381.82 362.82,376.52 353.48,383.92 			"/>
			<path class="st15" d="M334.29,238.06l1.23,2.83c0.1,0.22-0.08,0.48-0.35,0.51l-24.48,2.99c-0.21,0.03-0.39-0.1-0.42-0.28
				l-0.39-2.93c-0.03-0.2,0.14-0.4,0.37-0.43l23.64-2.89C334.07,237.84,334.23,237.92,334.29,238.06z"/>
			<path class="st9" d="M331.35,242.18l0.63-0.08c0.13-0.02,0.22-0.12,0.2-0.23l-0.53-3.8c-0.02-0.11-0.13-0.19-0.26-0.17
				l-0.63,0.08c-0.13,0.02-0.22,0.12-0.2,0.23l0.53,3.8C331.11,242.12,331.22,242.2,331.35,242.18z"/>
			<path class="st9" d="M312.49,244.49l0.63-0.08c0.13-0.02,0.22-0.12,0.2-0.23l-0.53-3.8c-0.02-0.11-0.13-0.19-0.26-0.17
				l-0.63,0.08c-0.13,0.02-0.22,0.12-0.2,0.23l0.53,3.8C312.25,244.43,312.37,244.5,312.49,244.49z"/>
			<path class="st9" d="M321.92,243.34l0.63-0.08c0.13-0.02,0.22-0.12,0.2-0.23l-0.53-3.8c-0.02-0.11-0.13-0.19-0.26-0.17
				l-0.63,0.08c-0.13,0.02-0.22,0.12-0.2,0.23l0.53,3.8C321.68,243.27,321.79,243.35,321.92,243.34z"/>
			<path class="st13" d="M316.75,164.93c-0.09,0.65-0.4,1.1-0.7,1.02c-0.3-0.08-0.47-0.67-0.38-1.32c0.09-0.65,0.4-1.1,0.7-1.02
				C316.67,163.7,316.84,164.29,316.75,164.93z"/>
			<path class="st13" d="M311.59,163.5c-0.09,0.65-0.4,1.1-0.7,1.02c-0.3-0.08-0.47-0.67-0.38-1.32s0.4-1.1,0.7-1.02
				C311.51,162.26,311.68,162.85,311.59,163.5z"/>
			<path class="st13" d="M311.34,162.25l-1.03-0.75C310.31,161.5,310.7,162.87,311.34,162.25z"/>
			<path class="st20" d="M313.36,165.11c0,0-1.16,2.56-2.2,3.67c0.49,0.96,1.57,0.88,1.57,0.88L313.36,165.11z"/>
			<path class="st13" d="M314.84,172.74c1.62,0,2.56-1.33,2.6-1.4c0.04-0.06,0.04-0.16,0-0.23c-0.04-0.06-0.12-0.06-0.16,0
				c-0.01,0.02-1.24,1.75-3.25,1.19c-0.06-0.02-0.12,0.04-0.13,0.13c-0.01,0.09,0.03,0.17,0.09,0.19
				C314.29,172.7,314.58,172.74,314.84,172.74z"/>
			<path class="st19" d="M310.15,179.58c-1.84-1.94-2.17-6.87-1.94-9.92c0.17-2.28,4.41-2.63,4.41-2.63s6.68,3.71,7.28,5.7
				c0.99,3.3,1.13,7.17-0.61,8.59C317.54,182.74,312.56,182.12,310.15,179.58z"/>
			<path class="st13" d="M319.85,162.43c0.04,0,0.08-0.02,0.12-0.05c0.11-0.09,0.14-0.29,0.08-0.44c-0.77-1.8-2.01-1.88-2.06-1.88
				c-0.13,0.01-0.23,0.13-0.23,0.31c-0.01,0.18,0.09,0.33,0.22,0.33c0.04,0,1.05,0.08,1.69,1.57
				C319.7,162.37,319.77,162.43,319.85,162.43z"/>
			<path class="st12" d="M310.16,159.84c0.04,0,0.08-0.01,0.11-0.04c1.09-0.86,2-0.19,2.01-0.19c0.11,0.08,0.25,0.02,0.31-0.13
				c0.06-0.16,0.02-0.35-0.1-0.43c-0.05-0.03-1.15-0.83-2.45,0.19c-0.11,0.09-0.15,0.28-0.09,0.44
				C310,159.78,310.08,159.84,310.16,159.84z"/>
			<path class="st14" d="M332.67,204.57c-0.18,4.31-0.53,8.48-1.05,12.75c-0.25,2.14-0.57,4.26-1.02,6.48
				c-0.23,1.12-0.48,2.23-0.9,3.5c-0.22,0.64-0.46,1.31-0.96,2.17l-0.22,0.33c-0.09,0.12-0.18,0.24-0.27,0.36
				c-0.12,0.14-0.31,0.34-0.41,0.43c-0.1,0.09-0.24,0.2-0.32,0.25c-0.38,0.26-0.64,0.38-0.89,0.49c-0.96,0.41-1.72,0.55-2.51,0.72
				c-0.78,0.15-1.54,0.27-2.29,0.38c-1.51,0.19-3,0.34-4.5,0.42c-1.49,0.08-2.98,0.13-4.46,0.17c-1.49,0-2.97,0.01-4.47-0.07
				l-0.01,0c-0.78-0.04-1.38-0.97-1.35-2.07c0.03-0.96,0.53-1.73,1.18-1.89l8.68-2.05c1.44-0.35,2.87-0.69,4.28-1.07
				c0.7-0.19,1.4-0.39,2.07-0.6c0.65-0.22,1.35-0.47,1.79-0.71c0.1-0.05,0.19-0.12,0.14-0.1c0.01,0-0.06,0.03-0.08,0.06
				c-0.03,0.02-0.15,0.14-0.19,0.2c-0.03,0.03-0.05,0.05-0.07,0.09c-0.01,0.01-0.02,0.02-0.03,0.04c-0.04,0.05,0.07-0.21,0.14-0.52
				c0.17-0.65,0.34-1.53,0.48-2.43c0.29-1.82,0.5-3.8,0.7-5.78c0.2-1.99,0.35-4.01,0.49-6.03c0.16-2.01,0.28-4.08,0.42-6.06
				l0.01-0.08c0.15-2.2,1.54-3.81,3.09-3.59C331.64,200.56,332.76,202.44,332.67,204.57z"/>
			<g>
				<g>
					<polygon class="st9" points="213.89,198.11 224.6,178.45 312.92,220.57 302.21,240.23 					"/>
					<polygon class="st16" points="216.08,194.1 222.41,182.46 310.73,224.58 304.4,236.22 					"/>
					<polygon class="st15" points="218.15,190.28 220.33,186.28 308.66,228.4 306.48,232.4 					"/>
				</g>
				<polygon class="st9" points="224.6,178.45 205.93,181.93 213.89,198.11 				"/>
				<polygon class="st21" points="213.89,198.11 208.41,186.97 211.75,180.84 224.6,178.45 				"/>
			</g>
			<path class="st14" d="M309.33,228.94l-4.08-2.07c-0.51-0.26-1.05-0.34-1.59-0.24l-1.08,0.2c-0.94,0.17-1.56,1.45-1.35,2.75
				l0.39,2.37c0.17,1.05,0.85,1.78,1.61,1.74l1.8-0.08c0,0,3.31,0.97,4.97-1.48L309.33,228.94z"/>
			<path class="st15" d="M332.71,191.04c5.39,5.04,0.1,21.87,0.1,21.87l-9.2-1.46c0,0-0.14-12.38,1.68-17
				C326.83,190.52,329.62,188.15,332.71,191.04z"/>
			<path class="st9" d="M359.52,399.8c0.07,0.02,0.15,0.02,0.23,0.01c0.71-0.14,1.39-1.79,1.72-2.76c0.02-0.06,0.01-0.13-0.02-0.18
				c-0.03-0.05-0.08-0.07-0.12-0.05c-0.22,0.1-2.2,0.99-2.39,1.97c-0.03,0.15-0.03,0.38,0.12,0.61
				C359.2,399.63,359.35,399.76,359.52,399.8z M361.14,397.25c-0.5,1.33-1.02,2.15-1.43,2.24c-0.18,0.03-0.33-0.06-0.48-0.3
				c-0.09-0.13-0.08-0.24-0.07-0.31C359.28,398.28,360.46,397.58,361.14,397.25z"/>
			<path class="st9" d="M359.57,397.25c0.64,0.17,1.46,0.08,1.84-0.12c0.04-0.02,0.06-0.07,0.07-0.12c0.01-0.06-0.01-0.11-0.04-0.15
				c-0.05-0.06-1.33-1.54-2.15-1.36c-0.21,0.05-0.38,0.2-0.49,0.45c-0.18,0.39-0.08,0.67,0,0.81
				C358.94,397,359.23,397.16,359.57,397.25z M361.21,395.75c-0.66,0.21-1.87,0.12-2.15-0.36c-0.05-0.08-0.09-0.2,0.02-0.43
				c0.08-0.17,0.19-0.27,0.34-0.31C359.97,394.52,360.84,395.36,361.21,395.75z"/>
			<path class="st9" d="M320.03,408.58c0.66,0,1.37-0.18,1.87-0.34c0.05-0.02,0.08-0.07,0.09-0.14c0.01-0.07-0.02-0.13-0.06-0.16
				c-0.28-0.19-2.76-1.81-3.39-1.21c-0.08,0.08-0.17,0.22-0.16,0.5c0.02,0.38,0.13,0.68,0.34,0.91
				C319.02,408.47,319.51,408.58,320.03,408.58z M321.51,408.03c-0.74,0.2-2.1,0.45-2.66-0.15c-0.16-0.17-0.24-0.39-0.25-0.67
				c-0.01-0.13,0.03-0.18,0.06-0.21C319.01,406.67,320.48,407.39,321.51,408.03z"/>
			<path class="st9" d="M321.88,408.25c0.03,0,0.05-0.01,0.07-0.04c0.03-0.04,0.05-0.1,0.04-0.16c-0.02-0.15-0.59-3.61-1.93-3.39
				c-0.34,0.06-0.43,0.29-0.45,0.48c-0.08,0.88,1.48,2.66,2.23,3.09C321.85,408.25,321.86,408.25,321.88,408.25z M320.18,404.98
				c0.86,0,1.36,2.01,1.53,2.82c-0.81-0.6-1.93-2.04-1.87-2.61c0-0.04,0.02-0.17,0.25-0.21
				C320.11,404.98,320.14,404.98,320.18,404.98z"/>
			<path class="st13" d="M316.5,163.69l-1.03-0.75C315.47,162.93,315.86,164.3,316.5,163.69z"/>
		</g>
	</g>
</g>
<g id="Character_1">
	<g>
		<path class="st12" d="M146.77,423.05c-18.79-1.07-40.24-3.24-64.26-6.51c-5.45-0.74-14.38-1.35-23.84-1.98
			c-26.36-1.78-45.13-3.34-46.46-7.19c-0.17-0.49-0.17-1.25,0.8-2.12l0.33,0.37l-0.33-0.37c3.65-3.28,52.68-2.16,96.68,0.27
			c42.33,2.34,94.65,6.7,102.84,11.28c0.95,0.53,1.37,1.12,1.26,1.76c-0.19,1-1.59,2.21-10.58,3.51
			C188.47,424.02,169.59,424.35,146.77,423.05z M13.69,405.99c-0.45,0.4-0.63,0.76-0.53,1.05c1.22,3.52,26.86,5.25,45.58,6.52
			c9.47,0.64,18.42,1.25,23.9,1.99c53.12,7.23,93.64,9.09,120.44,5.52c9.03-1.31,9.69-2.48,9.73-2.7c0.02-0.09-0.12-0.34-0.76-0.7
			c-7.52-4.22-56.85-8.67-102.41-11.16C57.8,403.65,16.54,403.42,13.69,405.99L13.69,405.99z"/>
		<g class="st1">
			<g class="st5">
				
					<rect x="153" y="152.84" transform="matrix(0.96 0.2801 -0.2801 0.96 81.1761 -35.179)" class="st9" width="21.36" height="227.22"/>
				
					<rect x="157.36" y="152.84" transform="matrix(0.96 0.2801 -0.2801 0.96 81.1786 -35.1797)" class="st16" width="12.64" height="227.22"/>
				
					<rect x="161.51" y="152.84" transform="matrix(0.96 0.2801 -0.2801 0.96 81.1737 -35.1784)" class="st9" width="4.35" height="227.22"/>
			</g>
			<polygon class="st22" points="121.61,372.52 122.27,408.4 142.12,378.51 			"/>
			<polygon class="st23" points="142.12,378.5 128.46,399.08 122.07,397.21 121.61,372.52 			"/>
		</g>
		<g>
			<path class="st24" d="M156.76,125.21c0,0,1.59,3.49,3.2,5.15c-0.99,1.03-2.82,0.6-2.82,0.6L156.76,125.21z"/>
			<path class="st25" d="M144.38,126.14c5.16,0.49,10.13,1.73,12.92,1.89c1.33,0.08,2.47,0.98,2.86,2.26
				c0.74,2.39,0.44,4.89-0.93,8.35c-1.83,4.62-10.63,2.95-14.32,1.8C145.07,135.03,144.38,126.14,144.38,126.14z"/>
			<path class="st26" d="M129.59,159.52c-1.95,3.87-3.93,7.98-5.79,12.01c-1.86,4.05-3.62,8.13-5.14,12.21l-0.56,1.53
				c-0.17,0.48-0.26,0.71-0.32,0.96c-0.06,0.23-0.08,0.37-0.13,0.32c-0.04-0.04-0.14-0.32-0.39-0.6c-0.23-0.28-0.55-0.41-0.59-0.39
				c-0.06,0.01,0.07,0.1,0.31,0.18c0.5,0.17,1.37,0.24,2.28,0.22c1.86-0.02,3.99-0.35,6.11-0.76c2.12-0.39,4.33-0.94,6.42-1.47
				l0.11-0.03c1.52-0.38,3.06,0.54,3.44,2.05c0.31,1.22-0.23,2.46-1.25,3.1c-1.09,0.68-2.11,1.24-3.19,1.8
				c-1.08,0.55-2.16,1.11-3.3,1.58c-2.26,0.97-4.61,1.83-7.31,2.36c-1.37,0.24-2.82,0.43-4.6,0.29c-0.89-0.08-1.89-0.27-3-0.74
				c-1.09-0.45-2.35-1.31-3.26-2.51c-0.93-1.21-1.4-2.62-1.59-3.79c-0.19-1.19-0.14-2.21-0.04-3.12c0.1-0.89,0.31-1.78,0.47-2.39
				l0.47-1.76c1.28-4.68,2.92-9.16,4.71-13.55c1.83-4.4,3.8-8.6,6.14-12.87c1.5-2.75,4.95-3.76,7.7-2.26
				c2.69,1.47,3.71,4.8,2.35,7.52L129.59,159.52z"/>
			<path class="st26" d="M132.14,184.03l4.4-2.53l1.23,8.35c0,0-2.94,0.36-5.59-0.84c-0.89-0.41-1.4-1.33-1.3-2.27l0.1-0.95
				C131.06,185.06,131.49,184.41,132.14,184.03z"/>
			<path class="st26" d="M143.89,183.45l-0.09,1.64c-0.06,1.04-0.66,1.97-1.58,2.45l-4.44,2.31l-1.23-8.35l3.58-1.05
				C142.07,179.88,144,181.42,143.89,183.45z"/>
			<path class="st13" d="M156.43,124.12c0.04,0.61,0.39,1.1,0.78,1.09c0.39-0.01,0.67-0.51,0.63-1.12c-0.04-0.61-0.39-1.1-0.78-1.09
				C156.67,123.01,156.39,123.51,156.43,124.12z"/>
			<path class="st13" d="M154.02,120.78c-0.08-0.02-0.17-0.06-0.22-0.14c-0.12-0.16-0.1-0.38,0.05-0.5c1.5-1.19,3.05-0.64,3.12-0.62
				c0.19,0.07,0.29,0.27,0.23,0.46c-0.06,0.19-0.26,0.28-0.44,0.21l0,0c-0.05-0.02-1.27-0.43-2.47,0.52
				C154.21,120.77,154.11,120.79,154.02,120.78z"/>
			<path class="st26" d="M138.3,132.26c1.04,5.54,1.64,13.18-2.21,16.62c0,0,1.46,5.65,11.62,6.23c11.17,0.64,5.4-4.57,5.4-4.57
				c-4.63-1.71-4.56-7.01-3.47-11.21L138.3,132.26z"/>
			<path class="st15" d="M155.08,149.78c0,0-1.6-3.96-3.26-4.73c-1.66-0.76-12.24-3.11-14.69-1.71c-2.45,1.4-4.13,6.26-4.13,6.26
				L155.08,149.78z"/>
			<path class="st9" d="M142.27,405.53c0.96,0.05,1.89-0.03,2.2-0.44c0.11-0.14,0.2-0.4-0.01-0.78c-0.12-0.21-0.3-0.36-0.56-0.45
				c-1.24-0.41-3.86,0.93-3.97,0.99c-0.06,0.03-0.1,0.1-0.09,0.18c0.01,0.07,0.07,0.13,0.14,0.15
				C140.46,405.31,141.38,405.48,142.27,405.53z M143.47,404.14c0.12,0.01,0.24,0.03,0.34,0.06c0.16,0.05,0.28,0.14,0.35,0.27
				c0.12,0.23,0.08,0.33,0.03,0.39c-0.35,0.46-2.24,0.37-3.63,0.09C141.25,404.64,142.59,404.09,143.47,404.14z"/>
			<path class="st9" d="M140.01,405.19c0.02,0,0.05,0,0.07-0.01c0.9-0.35,2.7-1.87,2.57-2.73c-0.03-0.2-0.17-0.46-0.66-0.53
				c-0.36-0.06-0.69,0.03-0.98,0.25c-0.96,0.73-1.17,2.74-1.18,2.82c-0.01,0.06,0.02,0.13,0.07,0.17
				C139.94,405.18,139.98,405.19,140.01,405.19z M141.86,402.26c0.03,0,0.07,0.01,0.11,0.01c0.32,0.05,0.34,0.18,0.34,0.22
				c0.08,0.51-1.14,1.72-2.07,2.22c0.1-0.58,0.37-1.78,1-2.25C141.43,402.31,141.63,402.24,141.86,402.26z"/>
			<polygon class="st26" points="131.8,404.55 139.27,404.97 140.12,387.66 132.65,387.23 			"/>
			<path class="st18" d="M139.23,404.1l-8.16-0.46c-0.31-0.02-0.57,0.18-0.64,0.48l-1.52,6.58c-0.16,0.68,0.36,1.37,1.07,1.39
				c2.94,0.12,7.2,0.19,10.9,0.4c4.33,0.25,4.85,0.51,9.92,0.8c3.07,0.17,3.94-2.89,2.66-3.24c-5.84-1.62-7.4-1.84-12.43-5.25
				C140.48,404.42,139.87,404.14,139.23,404.1z"/>
			<path class="st18" d="M122.71,148.14c-7.01,1.21-11.75,19.9-11.75,19.9l11.64,9.48c0,0,6.4-3.6,8.76-12.44
				C133.82,155.82,129.89,146.9,122.71,148.14z"/>
			<path class="st16" d="M128.63,161.67c-3.83,3.56-6.32,9.38-6.66,15.34l0.62,0.52c0,0,6.41-3.61,8.77-12.44
				c0.15-0.55,0.27-1.11,0.38-1.65L128.63,161.67z"/>
			<path class="st18" d="M166.92,158.18c1.48,8.18,2.33,24.86-2.31,57.54l-39.97-2.28c0.76-5.67,3.81-35.97-1.93-65.3
				c0,0,6.86-0.99,13.39-0.93c5.11,0.04,12.5,0.3,16.99,0.97c1.87,0.28,3.71,0.65,5.35,1.04
				C162.76,150.23,166.14,153.81,166.92,158.18z"/>
			<g>
				<polygon class="st16" points="140.12,387.66 139.68,396.59 132.21,396.16 132.65,387.24 				"/>
			</g>
			<path class="st26" d="M136.41,123.21c0.94,7.47,1.12,11.88,5.08,15.64c5.96,5.67,14.79,2.06,16.05-5.44
				c1.13-6.75-0.6-17.84-7.98-20.67C142.29,109.95,135.47,115.74,136.41,123.21z"/>
			<path class="st13" d="M153.33,128c0.39-2.43,4.21-1.24,1.3-6.42c-0.97-1.74-2.9-4.33-1.48-4.23c1.45,0.1,3.2-0.2,3.8-3.43
				c0.45-2.45-2.35-7.78-6.7-6.83c-4.35,0.95-3.75,1.57-7.45,1.28c-3.7-0.29-7.55,0.98-7.93,3.05c-0.38,2.08,0.11,2.79,0.11,2.79
				s-4.41,0.4-4.97,4.87c-0.49,3.91,3.32,3.75,4.07,7.62c0.52,2.66,4.05,5.21,3.94,7.51c-0.11,2.3,4.06,3.86,6.88,3.87
				C147.73,138.1,152.23,134.86,153.33,128z"/>
			<path class="st12" d="M133.67,116.67c-1.82-0.1-4.2-1.1-4.96-4.42c-0.12-0.54,0.21-1.07,0.75-1.2c0.54-0.12,1.07,0.21,1.2,0.75
				c0.76,3.3,3.6,2.88,3.93,2.83c0.54-0.09,1.06,0.26,1.16,0.8c0.1,0.54-0.25,1.06-0.79,1.16
				C134.6,116.66,134.15,116.7,133.67,116.67z"/>
			<path class="st25" d="M156.66,139.44c-0.02,0-0.04,0-0.07-0.01c-0.22-0.02-0.5-0.16-0.53-0.72c-0.05-0.94-2.15-2.77-3.68-4.11
				c-1.12-0.98-2.18-1.91-2.71-2.64c-0.93-1.28-0.38-3.53,0.38-5.08c0.85-1.74,2-2.8,3.08-2.84c2.48-0.09,3.92,2.82,5.09,5.16
				c0.38,0.75,0.73,1.47,1.05,1.91l0.13,0.19l-0.05,0.22C157.51,139.15,157.11,139.47,156.66,139.44z M153.34,125.05
				c-0.06,0-0.11,0-0.17,0c-0.67,0.02-1.56,0.94-2.22,2.28c-0.79,1.63-0.99,3.33-0.47,4.05c0.47,0.64,1.48,1.53,2.56,2.47
				c1.52,1.33,2.98,2.61,3.65,3.74c0.43-1.34,1.07-3.78,1.63-6.08c-0.32-0.49-0.64-1.13-1-1.85
				C156.33,127.64,155.08,125.15,153.34,125.05z"/>
			<path class="st26" d="M149.36,125.81c0.18,1.96,1.13,3.82,2.25,5.04c1.68,1.84,3.33,0.73,3.54-1.47
				c0.19-1.98-0.45-5.33-2.46-6.36C150.71,122,149.16,123.57,149.36,125.81z"/>
			<path class="st9" d="M77.9,399.27c0.01-0.96-0.11-1.9-0.54-2.24c-0.15-0.12-0.41-0.22-0.77-0.03c-0.21,0.1-0.35,0.28-0.42,0.54
				c-0.35,1.23,1.1,3.94,1.16,4.05c0.04,0.07,0.11,0.11,0.18,0.1s0.13-0.06,0.15-0.13C77.76,401.09,77.89,400.17,77.9,399.27z
				 M76.46,397.99c0-0.12,0.02-0.24,0.04-0.34c0.05-0.16,0.13-0.27,0.25-0.33c0.22-0.11,0.33-0.06,0.39-0.01
				c0.48,0.38,0.47,2.27,0.25,3.65C77.06,400.25,76.45,398.87,76.46,397.99z"/>
			<path class="st9" d="M77.66,401.52c0-0.02,0-0.05-0.01-0.07c-0.39-0.93-1.99-2.82-2.83-2.74c-0.2,0.02-0.45,0.15-0.5,0.63
				c-0.04,0.36,0.06,0.7,0.29,1c0.77,1,2.78,1.33,2.86,1.35c0.06,0.01,0.12-0.01,0.16-0.06C77.65,401.59,77.66,401.56,77.66,401.52z
				 M74.66,399.5c0-0.03,0-0.07,0.01-0.11c0.04-0.32,0.16-0.33,0.2-0.33c0.51-0.05,1.76,1.25,2.3,2.21
				c-0.59-0.13-1.79-0.48-2.29-1.13C74.73,399.94,74.65,399.73,74.66,399.5z"/>
			<polygon class="st26" points="77.55,401.57 84.84,402.5 89.04,385.24 81.76,384.3 			"/>
			<path class="st18" d="M77.58,399.89l8.13-0.26c0.3-0.01,0.59,0.2,0.68,0.49l2.02,6.62c0.21,0.69-0.26,1.36-0.96,1.37
				c-2.94,0.04-7.19,0-10.88,0.12c-4.31,0.14-1.52,0.29-6.58,0.45c-3.06,0.1-4.16-2.99-2.9-3.31c5.72-1.47,6.76-2.65,8.75-4.84
				C76.26,400.06,76.94,399.91,77.58,399.89z"/>
			<g>
				<polygon class="st16" points="89.04,385.24 86.88,394.14 79.58,393.21 81.75,384.31 				"/>
			</g>
			<path class="st15" d="M150.43,214.91c0,0-17.55,56.59-24.21,77.58c-7.29,22.99-34.95,99.08-34.95,99.08l-13.16-3.65
				c0,0,19.03-65.64,26.96-97.83c6.09-24.73,19.57-76.64,19.57-76.64L150.43,214.91z"/>
			<path class="st18" d="M93.61,387.61c0.06,0.01-1.33,5.09-1.33,5.09l-15.84-2.61l1.22-6.92L93.61,387.61z"/>
			<path class="st27" d="M140.74,241.04c-9.52,0.72-13.52,33.74-15.06,53.17c0.18-0.61,0.38-1.18,0.55-1.73
				c3.63-11.46,10.51-33.56,16.02-51.25C141.8,241.06,141.29,241,140.74,241.04z"/>
			<path class="st15" d="M164.61,215.71c0,0-6.12,55.74-8.74,78.42c-2.73,23.59-12.92,100.91-12.92,100.91l-12.66-0.72
				c0,0,2.02-76.36,2.67-99.68c0.72-25.42,5.38-80.42,5.38-80.42L164.61,215.71z"/>
			<path class="st18" d="M144.96,388.01c0.06,0-0.76,7.32-0.76,7.32l-15.4-0.88l-0.38-6.59L144.96,388.01z"/>
			<path class="st26" d="M166.88,158.3c1.15,5.18,2.18,10.38,3.14,15.59c0.95,5.21,1.81,10.44,2.67,15.61l0.64,3.83l0.34,1.85
				l0.09,0.44l0.04,0.22l0.01,0.06l-0.01-0.03l-0.02-0.07c-0.07-0.18-0.2-0.4-0.35-0.59c-0.33-0.39-0.62-0.46-0.59-0.39
				c0.02,0.06,0.28,0.18,0.63,0.27c0.73,0.18,1.79,0.26,2.9,0.28c2.24,0,4.73-0.27,7.22-0.63l3.77-0.59l3.77-0.68l0.09-0.02
				c1.54-0.28,3.02,0.74,3.3,2.28c0.22,1.24-0.39,2.43-1.44,3c-1.27,0.69-2.48,1.25-3.75,1.82c-1.26,0.57-2.53,1.09-3.84,1.57
				c-2.62,0.96-5.32,1.78-8.33,2.26c-1.52,0.24-3.11,0.39-5,0.23c-0.95-0.09-1.99-0.26-3.19-0.72c-0.59-0.23-1.24-0.55-1.88-0.99
				c-0.64-0.44-1.29-1.05-1.83-1.76c-0.55-0.71-0.97-1.55-1.23-2.35l-0.16-0.52l-0.07-0.26l-0.14-0.52l-0.51-2.02l-0.93-3.93
				c-1.16-5.2-2.25-10.34-3.33-15.49c-1.07-5.15-2.12-10.3-3.12-15.45c-0.6-3.08,1.41-6.05,4.49-6.65
				C163.28,153.37,166.21,155.31,166.88,158.3z"/>
			<path class="st28" d="M192.44,198.56c-0.72,0.02-1.4-0.37-1.77-1.01l-0.85-1.46c-0.44-0.75-0.39-1.7,0.12-2.4l2.17-2.96
				c0.62-0.85,1.5-1.45,2.49-1.7l4.09-1.06c0.94-0.14,1.87,0.31,2.39,1.15l1.26,2.05c0.79,1.28,0.35,3.01-0.95,3.7l-1.72,0.92
				C199.67,195.79,197.1,198.43,192.44,198.56z"/>
			<path class="st18" d="M150.22,156.93c-0.84,6.3,5.24,20.18,5.24,20.18l17.28-1.09c0,0-1.13-13.26-6.61-21.01
				C159.38,145.44,151.25,149.27,150.22,156.93z"/>
		</g>
	</g>
</g>
<g id="Distance">
</g>
</svg>
