<?xml version="1.0" encoding="utf-8"?>
<!-- Generator: Adobe Illustrator 25.0.0, SVG Export Plug-In . SVG Version: 6.00 Build 0)  -->
<svg version="1.1" xmlns="http://www.w3.org/2000/svg" xmlns:xlink="http://www.w3.org/1999/xlink" x="0px" y="0px"
	 viewBox="0 0 500 500" style="enable-background:new 0 0 500 500;" xml:space="preserve">
<style type="text/css">
	.st0{fill:#0080FF;}
	.st1{clip-path:url(#SVGID_11_);}
	.st2{fill:#F2CF05;}
	.st3{fill:#66C5DE;}
	.st4{fill:#8CD4E6;}
	.st5{fill:#40B7D6;}
	.st6{fill:none;stroke:#0C1153;stroke-width:0.4252;stroke-miterlimit:10;}
	.st7{fill:none;stroke:#FFFFFF;stroke-width:0.4252;stroke-miterlimit:10;}
	.st8{fill:none;stroke:#3D7BA5;stroke-width:0.8504;stroke-miterlimit:10;}
	.st9{fill:#FFB383;}
	.st10{fill:#FFFFFF;}
	.st11{fill:#AC290E;}
	.st12{fill:#1313A5;}
	.st13{fill:none;stroke:#ADBCDB;stroke-width:0.4252;stroke-miterlimit:10;}
	.st14{fill:#0C1153;}
	.st15{fill:#0A0909;}
	.st16{fill:none;stroke:#B84932;stroke-width:0.4252;stroke-miterlimit:10;}
	.st17{clip-path:url(#SVGID_12_);}
	.st18{fill:none;stroke:#F58A91;stroke-width:0.5669;stroke-miterlimit:10;}
	.st19{clip-path:url(#SVGID_13_);fill:#0080FF;}
	.st20{clip-path:url(#SVGID_13_);}
	.st21{fill:#FCC130;}
	.st22{fill:#E3EFFF;}
	.st23{fill:#D0DAE9;}
	.st24{fill:#F2CF05;stroke:#ADBCDB;stroke-width:0.4252;stroke-miterlimit:10;}
	.st25{fill:#FFA07C;}
	.st26{clip-path:url(#SVGID_14_);fill:#D0DAE9;}
	.st27{clip-path:url(#SVGID_14_);fill:#0080FF;}
	.st28{clip-path:url(#SVGID_14_);}
	.st29{opacity:0.5;clip-path:url(#SVGID_14_);fill:none;stroke:#3D7BA5;stroke-width:0.8504;stroke-miterlimit:10;}
	.st30{clip-path:url(#SVGID_15_);}
	.st31{fill:#111010;}
	.st32{fill:none;stroke:#7E484B;stroke-width:0.4252;stroke-miterlimit:10;}
	.st33{fill:none;stroke:#F26D76;stroke-width:0.4252;stroke-miterlimit:10;}
	.st34{fill:#ADBCDB;stroke:#3D4D97;stroke-miterlimit:10;}
	.st35{fill:#0080FF;stroke:#3D4D97;stroke-miterlimit:10;}
	.st36{fill:none;stroke:#3D4D97;stroke-width:0.4252;stroke-miterlimit:10;}
	.st37{fill:#AC290E;stroke:#3D4D97;stroke-miterlimit:10;}
	.st38{fill:#F26D76;stroke:#3D4D97;stroke-miterlimit:10;}
	.st39{fill:#F2CF05;stroke:#3D4D97;stroke-miterlimit:10;}
	.st40{fill:#5E1A1E;stroke:#3D4D97;stroke-miterlimit:10;}
	.st41{fill:#0C1153;stroke:#3D4D97;stroke-miterlimit:10;}
	.st42{fill:#050203;stroke:#3D4D97;stroke-miterlimit:10;}
	.st43{clip-path:url(#SVGID_16_);fill:#0080FF;stroke:#3D4D97;stroke-miterlimit:10;}
	.st44{clip-path:url(#SVGID_16_);}
	.st45{fill:#FCC130;stroke:#3D4D97;stroke-miterlimit:10;}
	.st46{fill:#66C5DE;stroke:#3D4D97;stroke-miterlimit:10;}
	.st47{fill:#8CD4E6;stroke:#3D4D97;stroke-miterlimit:10;}
	.st48{fill:#40B7D6;stroke:#3D4D97;stroke-miterlimit:10;}
	.st49{opacity:0.5;fill:none;stroke:#3D4D97;stroke-width:0.8504;stroke-miterlimit:10;}
	.st50{fill:#0C0A0A;}
	.st51{fill:#020202;}
	.st52{opacity:0.5;clip-path:url(#SVGID_17_);}
	.st53{fill:none;stroke:#5088AE;stroke-width:0.4252;stroke-miterlimit:10;}
	.st54{clip-path:url(#SVGID_18_);fill:#0080FF;}
	.st55{clip-path:url(#SVGID_18_);}
	.st56{opacity:0.5;clip-path:url(#SVGID_18_);fill:none;stroke:#3D7BA5;stroke-width:0.8504;stroke-miterlimit:10;}
</style>
<g id="BACKGROUND">
</g>
<g id="OBJECTS">
	<g>
		<path class="st0" d="M202.52,136.44c-6.76-2.25-13.92-2.63-13.51,9.38c0.34,10.06,3.75,14.26,21.39,7.13
			c15.3-6.19,8.86,17,2.96,35.99c31.25,11.73,38.61,4.12,29.55-9.84c-13.14-20.27,23.64-19.52,18.41-6.11
			c-2.98,7.63-7.9,23.75,10.12,20.37c5.89-1.1,13.06-3.17,20.24-5.23c-3.94-13.84-7.39-27.12-3.37-30.67
			c6.38-5.63,21.39,11.26,27.77,1.88c6.38-9.38,3.38-23.64-12.39-20.27c-14.53,3.11-23.96-0.13-12.41-32.4h-75.29
			C225.88,144.22,208.82,138.54,202.52,136.44z"/>
		<path class="st0" d="M261.32,172.99c5.24-13.41-31.54-14.16-18.41,6.11c9.05,13.97,1.69,21.57-29.55,9.84
			c-0.9,2.9-1.79,5.71-2.58,8.29c-6.01,19.52,0.38,23.27,13.51,21.39c13.14-1.88,15.39,3.75,11.26,17.26
			c-4.13,13.51-22.22-10.44-25.9,1.88c-1.12,3.77,1.03,14.62,5.24,32.04c14.43-3.39,23.52-5.02,26.9-4.01
			c12.32,3.67-11.63,21.77,1.88,25.9c13.51,4.13,19.14,1.88,17.26-11.26c-1.88-13.14,1.88-19.52,21.39-13.51
			c3.26,1,6.87,2.15,10.58,3.29c12.27-32.09,4.65-39.71-9.46-30.56c-20.27,13.14-19.52-23.64-6.11-18.41
			c7.63,2.98,23.75,7.9,20.37-10.12c-1.25-6.64-3.71-14.91-6.02-22.99c-7.18,2.06-14.35,4.13-20.24,5.23
			C253.42,196.74,258.34,180.63,261.32,172.99z"/>
		<path class="st0" d="M291.29,106.67c-11.54,32.28-2.12,35.52,12.41,32.4c15.76-3.38,18.77,10.88,12.39,20.27
			c-6.38,9.38-21.39-7.51-27.77-1.88c-4.03,3.55-0.58,16.83,3.37,30.67c14.79-4.24,29.64-8.45,33.43-4.15
			c5.63,6.38-11.26,21.39-1.88,27.77c9.38,6.38,23.64,3.38,20.27-12.39c-3.16-14.73,0.22-24.22,33.78-11.91v-80.79H291.29z"/>
		<path class="st0" d="M343.12,258.67c2.25-6.76,2.63-13.92-9.38-13.51c-10.06,0.34-14.26,3.75-7.13,21.39
			c5.94,14.69-15.2,9.33-33.71,3.66c-0.03,0.07-0.05,0.14-0.08,0.21c-12.39,32.28-0.75,34.15,6.38,34.15
			c7.13,0,22.33-8.87,19.14,12.39c-2.25,15.01-8.26,10.13-22.14,4.5c-12.43-5.04-10.14,6.91-1.8,32.24h82.88v-82.78
			C334.91,283.31,340.94,265.2,343.12,258.67z"/>
		<path class="st0" d="M205.9,319.59c-19.9,8.26-16.89-21.02-7.51-19.14c9.38,1.88,26.27,8.63,19.89-16.89
			c-1.24-4.96-2.38-9.54-3.39-13.75c-5.52,1.3-11.82,2.85-18.89,4.62c-25.52,6.38-18.77-10.51-16.89-19.89
			c1.88-9.38-27.4-12.39-19.14,7.51c7.6,18.32-4.52,17.86-29.74,8.88v82.79h82.95C223.64,325.54,225.25,311.56,205.9,319.59z"/>
		<g>
			<defs>
				<path id="SVGID_9_" d="M377.27,187.46v-80.79h-85.99h-75.29c9.88,37.56-7.18,31.87-13.48,29.77
					c-6.76-2.25-13.92-2.63-13.51,9.38c0.34,10.06,3.75,14.26,21.39,7.13c15.3-6.19,8.86,17,2.96,35.99
					c-0.9,2.9-1.79,5.71-2.58,8.29c-6.01,19.52,0.38,23.27,13.51,21.39c13.14-1.88,15.39,3.75,11.26,17.26
					c-4.13,13.51-22.22-10.44-25.9,1.88c-1.12,3.77,1.03,14.62,5.24,32.04c14.43-3.39,23.52-5.02,26.9-4.01
					c12.32,3.67-11.63,21.77,1.88,25.9c13.51,4.13,19.14,1.88,17.26-11.26c-1.88-13.14,1.88-19.52,21.39-13.51
					c3.26,1,6.87,2.15,10.58,3.29c12.27-32.09,4.65-39.71-9.46-30.56c-20.27,13.14-19.52-23.64-6.11-18.41
					c7.63,2.98,23.75,7.9,20.37-10.12c-1.25-6.64-3.71-14.91-6.02-22.99c14.79-4.24,29.64-8.45,33.43-4.15
					c5.63,6.38-11.26,21.39-1.88,27.77c9.38,6.38,23.64,3.38,20.27-12.39C340.34,184.64,343.72,175.15,377.27,187.46z M299.2,304.58
					c7.13,0,22.33-8.87,19.14,12.39c-2.25,15.01-8.26,10.13-22.14,4.5c-12.43-5.04-10.14,6.91-1.8,32.24h82.88v-82.78
					c-42.37,12.39-36.33-5.73-34.15-12.26c2.25-6.76,2.63-13.92-9.38-13.51c-10.06,0.34-14.26,3.75-7.13,21.39
					c5.94,14.69-15.2,9.34-33.71,3.66c-0.03,0.07-0.05,0.14-0.08,0.21C280.43,302.7,292.07,304.58,299.2,304.58z M179.11,254.54
					c1.88-9.38-27.4-12.39-19.14,7.51c7.6,18.32-4.52,17.86-29.74,8.88v82.79h82.95c10.46-28.17,12.07-42.15-7.28-34.12
					c-19.9,8.26-16.89-21.02-7.51-19.14c9.38,1.88,26.27,8.63,19.89-16.89c-1.24-4.96-2.38-9.54-3.39-13.75
					c-5.52,1.3-11.82,2.85-18.89,4.62C170.48,280.81,177.23,263.92,179.11,254.54z"/>
			</defs>
			<clipPath id="SVGID_11_">
				<use xlink:href="#SVGID_9_"  style="overflow:visible;"/>
			</clipPath>
			<g class="st1">
				<path class="st2" d="M308.52,207.9c0-30.31-24.78-54.83-55.19-54.41c-29.62,0.41-53.66,24.82-53.64,54.45
					c0.01,14.95,6.05,28.49,15.83,38.32c5.37,5.4,8.5,12.63,8.5,20.24v0.03c0,6.15,4.99,11.14,11.14,11.14h37.91
					c6.15,0,11.14-4.99,11.14-11.14v-0.03c0-7.46,2.88-14.68,8.18-19.93C302.34,236.72,308.52,223.03,308.52,207.9z"/>
				<path class="st3" d="M272.49,316.01h-36.77c-2.98,0-5.4-2.42-5.4-5.4v-32.94h47.57v32.94
					C277.89,313.59,275.47,316.01,272.49,316.01z"/>
				<rect x="230.32" y="277.67" class="st4" width="47.57" height="8.67"/>
				<path class="st4" d="M274.28,316.01h-40.36l0,0c0,3.98,3.23,7.21,7.21,7.21h25.95C271.06,323.22,274.28,319.99,274.28,316.01
					L274.28,316.01z"/>
				<path class="st5" d="M258.03,329.58h-7.86c-1.82,0-3.53-0.86-4.62-2.33l-2.98-4.04h23.06l-2.98,4.04
					C261.57,328.72,259.86,329.58,258.03,329.58z"/>
				<line class="st6" x1="230.32" y1="295.29" x2="277.89" y2="289.52"/>
				<line class="st6" x1="230.32" y1="302.6" x2="277.89" y2="296.84"/>
				<line class="st6" x1="230.32" y1="309.92" x2="277.89" y2="304.15"/>
				<line class="st6" x1="238.32" y1="316.27" x2="277.89" y2="311.47"/>
				<path class="st6" d="M246.28,276.73v-14.17c0-3.32,2.69-6.01,6.01-6.01h4.08c3.32,0,6.01,2.69,6.01,6.01v15.11"/>
				<line class="st6" x1="250.62" y1="256.91" x2="232.91" y2="207.57"/>
				<line class="st6" x1="257.65" y1="256.91" x2="273.25" y2="207.57"/>
				<path class="st6" d="M234.3,211.43c4.64-6.88,12.18,1.05,7.47,1.98c-4.71,0.93-3.05-6.41,5.35-8.3c8.4-1.88,7.83,5.09,3.5,5.46
					c-4.33,0.38-3.31-7.91,6.63-6.97c9.94,0.94,11.37,9.23,5.9,8.29c-5.46-0.94-1.14-9.59,9.49-2.34"/>
				<g>
					<line class="st7" x1="338.11" y1="206.51" x2="314.33" y2="206.51"/>
					<line class="st7" x1="193.88" y1="206.51" x2="170.09" y2="206.51"/>
				</g>
				<g>
					<line class="st7" x1="326.86" y1="164.5" x2="306.26" y2="176.39"/>
					<line class="st7" x1="201.95" y1="236.62" x2="181.35" y2="248.51"/>
				</g>
				<g>
					<line class="st7" x1="296.11" y1="133.75" x2="284.22" y2="154.35"/>
				</g>
				<g>
					<line class="st7" x1="254.1" y1="122.5" x2="254.1" y2="146.28"/>
				</g>
				<g>
					<line class="st7" x1="212.1" y1="133.75" x2="223.99" y2="154.35"/>
				</g>
				<g>
					<line class="st7" x1="181.35" y1="164.5" x2="201.95" y2="176.39"/>
					<line class="st7" x1="306.26" y1="236.62" x2="326.86" y2="248.51"/>
				</g>
			</g>
		</g>
		<path class="st8" d="M291.29,106.67c-11.54,32.28-2.12,35.52,12.41,32.4c15.76-3.38,18.77,10.88,12.39,20.27
			c-6.38,9.38-21.39-7.51-27.77-1.88c-4.03,3.55-0.58,16.83,3.37,30.67"/>
	</g>
	<g>
		<g>
			<g>
				<path class="st9" d="M122.69,217.07c0,0-1.62-4.17-1.03-4.59c0.58-0.42,1.85,2.33,1.85,2.33s-1.28-3.01-0.35-3.19
					c0.82-0.16,1.52,2.98,1.52,2.98s-0.66-2.78-0.03-3.01c0.62-0.23,1.31,2.95,1.31,2.95s-0.52-2.14,0.13-2.34s1.64,4.5,1.19,5.46
					c0.5,3.01,1.14,4.47,1.14,4.47l-4.04,1.05l-1.38-4.32"/>
				<path class="st6" d="M123.32,215.59"/>
				<path class="st6" d="M122.69,217.07c0,0,0.63-0.59,1.53,0.11"/>
				<path class="st6" d="M125.79,213.59l0.16,0.96c0,0-0.99,1.21-0.22,2.27"/>
				<line class="st6" x1="124.43" y1="213.18" x2="124.68" y2="214.6"/>
				<line class="st6" x1="123.05" y1="213.56" x2="123.5" y2="214.81"/>
				<path class="st6" d="M125.96,214.54c0,0-1.91-0.29-3.04,0.69"/>
				<path class="st9" d="M70.73,206.12c0,0,1.52-4.2,0.93-4.61s-1.79,2.37-1.79,2.37s1.21-3.04,0.27-3.19
					c-0.82-0.14-1.45,3.02-1.45,3.02s0.59-2.8-0.04-3.01c-0.63-0.21-1.24,2.98-1.24,2.98s0.47-2.15-0.19-2.34
					c-0.66-0.19-1.53,4.53-1.07,5.49c-0.43,3.02-1.04,4.5-1.04,4.5l4.06,0.96l1.28-4.35"/>
				<polygon class="st10" points="119.2,346.62 114.41,358.19 108.7,356.56 112.17,345.38 				"/>
				<path class="st2" d="M114.41,358.19c0.45,0.46,1.16,1.12,2.16,1.76c2.23,1.41,4.06,1.54,4.35,2.72
					c0.07,0.27,0.08,0.71-0.29,1.33c-2.98,1.89-12.89-1.23-14.06-3.04c-0.2-2.79,2.13-4.39,2.13-4.39L114.41,358.19z"/>
				<path class="st6" d="M106.59,360.02c0,0,6.09,3.98,14.29,3.41"/>
				<path class="st11" d="M99.52,220.93c0,2.22-0.8,4.01-1.78,4.01c-0.98,0-1.78-1.8-1.78-4.01s0.8-4.01,1.78-4.01
					C98.73,216.92,99.52,218.71,99.52,220.93z"/>
				<polygon class="st9" points="87,236.2 87,227.52 94.21,227.52 96.59,234.93 93.24,237.83 				"/>
				<polygon class="st10" points="80.8,360.97 78.08,373.19 72.17,372.57 73.66,360.97 				"/>
				<path class="st2" d="M78.08,373.19c0.52,0.37,1.34,0.91,2.43,1.36c2.44,1.01,4.27,0.81,4.75,1.92c0.11,0.26,0.2,0.68-0.06,1.36
					c-2.6,2.38-12.91,1.02-14.38-0.57c-0.68-2.72,1.34-4.7,1.34-4.7L78.08,373.19z"/>
				<path class="st0" d="M81.34,275.11c0,0-2.91,21.85-2.67,24.19c0.23,2.34-7.18,70.9-7.18,70.9l8.67,0.31l18.89-68.41l16.86,20.38
					l-7.96,31.85l9.37,2.81c0,0,13.58-31.15,12.65-36.3c-0.94-5.15-21-43.08-21-43.08S100.56,275.28,81.34,275.11z"/>
				<path class="st2" d="M64.61,210.84c0,0-11.73,19.56-6.94,27.98c2.13,3.75,18.19,14.49,18.19,14.49l4.63,29.75
					c4.18,0.53,9.46,0.84,15.51,0.33c5.83-0.49,10.19-1.94,14.13-3.11c0-11.11,0.01-18.88,0.01-29.98c0,0,17.93-4.01,21.2-6.82
					c3.28-2.81-2.83-23.93-2.83-23.93l-6.08,1.9l0.73,13.34l-45.67,1.64l-10.64-6.03l3.51-18.54L64.61,210.84z"/>
				<polygon class="st12" points="90.78,238.1 92.51,240.33 94.36,240.17 95.45,238.09 92.92,236.19 				"/>
				<polygon class="st0" points="92.51,240.33 93.51,273.9 97.8,277.56 100.72,272.53 94.36,240.17 				"/>
				<path class="st9" d="M84.17,221.02c-0.8,7.53,4.85,12.41,11.52,11.56c6.67-0.84,2.36-12.9,1.74-15.78
					C96.81,213.93,85.51,208.38,84.17,221.02z"/>
				<polygon class="st10" points="85.11,236.86 87,234.42 93.24,235.77 96.58,233.9 99.02,235.57 95.76,239.69 93.18,236.69 
					91.03,240.17 				"/>
				<polyline class="st13" points="85.75,236.04 85.11,236.86 91.03,240.17 93.18,236.69 95.76,239.69 99.02,235.57 				"/>
				<path class="st6" d="M89.46,230.4c0,0,2.87,3.21,6.82,2.07"/>
				<path class="st6" d="M95.9,224.64c0.95-0.72,1.45,0.07,0.59,1.22"/>
				<path class="st6" d="M94.45,227.38c0,0,1.72,0.57,2.73-0.29"/>
				<path class="st14" d="M93.08,223.49c0.06,0.52-0.1,0.96-0.36,0.99c-0.26,0.03-0.52-0.36-0.58-0.88
					c-0.06-0.52,0.1-0.96,0.36-0.99C92.76,222.58,93.02,222.97,93.08,223.49z"/>
				<path class="st14" d="M97.44,222.82c0.06,0.52-0.1,0.96-0.36,0.99c-0.26,0.03-0.52-0.36-0.58-0.88
					c-0.06-0.52,0.1-0.96,0.36-0.99C97.12,221.91,97.38,222.3,97.44,222.82z"/>
				<path class="st15" d="M86.95,222.88c0,0,0.43,2.39,0.36,2.98c1.36-0.13,1.36-0.13,1.36-0.13s0.07-2.44,0.79-3.66
					c0.72-1.22-0.6-3.23-0.6-3.23s3.4,2.22,6.27,0.28c3.88,0.43,6.03-2.23,2.87-4.31c-3.16-2.08-8.18-3.54-11.06-1.73
					c-1.58-0.35-5.95,2.97-4.98,5.92c-0.79,4.88-2.05,8.32,5.03,10.8C83.63,224.51,84.15,221.68,86.95,222.88z"/>
				<line class="st6" x1="99.05" y1="302.11" x2="104.2" y2="298.3"/>
				<path class="st13" d="M62.43,215.66c0,0,3.77,2.27,7.3,0.61"/>
				<path class="st13" d="M123.01,226.93c0,0,5.54-0.51,6.91-2.38"/>
				<line class="st13" x1="110.14" y1="250.3" x2="109.99" y2="245.31"/>
				<path class="st6" d="M70.69,376.35c0,0,6.68,2.87,14.67,0.89"/>
				<line class="st6" x1="92.51" y1="240.33" x2="94.36" y2="240.17"/>
				<path class="st16" d="M88.12,216.92c0,0,2.36,1.71,3.95,1.4"/>
				<path class="st16" d="M90.09,215.43c0,0,2.86,0.32,3.72,1.49"/>
				<path class="st16" d="M85.85,215.1c0,0,1.56,1.26,3.12,1.07"/>
				<path class="st16" d="M87.8,214.04c0,0,1.54-0.53,2.68,0"/>
				<path class="st16" d="M85.11,217.63c0,0,0.52,1.9,1.89,1.9"/>
				<path class="st16" d="M92.61,214.04c0,0,2.83,1.15,3.81,2.13"/>
				<path class="st16" d="M84.1,219.53c0,0,0.98,1.39,2.54,1.39"/>
				<path class="st16" d="M84.1,216.92c0,0-1.44,1.09-0.97,2.26"/>
				<path class="st16" d="M83.03,221.59c0,0-0.63,1.32,0,1.95"/>
				<path class="st16" d="M95.07,217.63c0,0,2.24,0.07,2.68-0.72"/>
				<path class="st6" d="M70.06,204.67"/>
				<path class="st6" d="M70.73,206.12c0,0-0.64-0.57-1.52,0.14"/>
				<path class="st6" d="M67.54,202.72l-0.14,0.96c0,0,1.02,1.18,0.27,2.26"/>
				<line class="st6" x1="68.9" y1="202.28" x2="68.68" y2="203.71"/>
				<line class="st6" x1="70.28" y1="202.63" x2="69.86" y2="203.89"/>
				<path class="st6" d="M67.4,203.68c0,0,1.9-0.34,3.06,0.61"/>
				<g>
					<defs>
						<polygon id="SVGID_1_" points="92.51,240.33 93.51,273.9 97.8,277.56 100.72,272.53 94.36,240.17 						"/>
					</defs>
					<clipPath id="SVGID_12_">
						<use xlink:href="#SVGID_1_"  style="overflow:visible;"/>
					</clipPath>
					<g class="st17">
						<line class="st18" x1="90.71" y1="277.67" x2="101.76" y2="267.67"/>
						<line class="st18" x1="90.71" y1="273.64" x2="101.76" y2="263.64"/>
						<line class="st18" x1="90.71" y1="269.61" x2="101.76" y2="259.61"/>
						<line class="st18" x1="90.71" y1="265.58" x2="101.76" y2="255.58"/>
						<line class="st18" x1="90.71" y1="261.54" x2="101.76" y2="251.55"/>
						<line class="st18" x1="90.71" y1="257.51" x2="101.76" y2="247.52"/>
						<line class="st18" x1="90.71" y1="253.48" x2="101.76" y2="243.49"/>
						<line class="st18" x1="90.71" y1="249.45" x2="101.76" y2="239.46"/>
						<line class="st18" x1="90.71" y1="245.42" x2="101.76" y2="235.43"/>
					</g>
				</g>
			</g>
			<g>
				<defs>
					<path id="SVGID_7_" d="M104.64,200.81c2.89,14.7,2.1,22.4,15.9,16.06c19.53-8.97,3.79-16.83-0.12-22.8
						c-3.91-5.97-8.71-16.73,25.08-24.04c0.43-0.09,0.85-0.19,1.27-0.28c-5.47-19.12-12.77-42.05-22.19-28.5
						c-10.85,15.63-16.01,13.98-21.8,5.75c-6.92-9.83-0.72-13.43,6.17-15.25c6.42-1.69,23.81-6.28-5.03-32.29l-71.76,46.97
						l45.42,69.4C93.62,195.81,102.09,187.89,104.64,200.81z"/>
				</defs>
				<clipPath id="SVGID_13_">
					<use xlink:href="#SVGID_7_"  style="overflow:visible;"/>
				</clipPath>
				<path class="st19" d="M104.64,200.81c2.89,14.7,2.1,22.4,15.9,16.06c19.53-8.97,3.79-16.83-0.12-22.8
					c-3.91-5.97-8.71-16.73,25.08-24.04c0.43-0.09,0.85-0.19,1.27-0.28c-5.47-19.12-12.77-42.05-22.19-28.5
					c-10.85,15.63-16.01,13.98-21.8,5.75c-6.92-9.83-0.72-13.43,6.17-15.25c6.42-1.69,23.81-6.28-5.03-32.29l-71.76,46.97
					l45.42,69.4C93.62,195.81,102.09,187.89,104.64,200.81z"/>
				<g class="st20">
					<path class="st21" d="M236.77,133.5c-16.6-25.36-50.76-32.31-75.97-15.3c-24.56,16.57-31.3,50.16-15.06,74.93
						c8.2,12.51,20.67,20.52,34.23,23.4c7.45,1.58,14.03,5.91,18.2,12.28l0.02,0.02c3.37,5.15,10.27,6.59,15.41,3.22l31.72-20.76
						c5.15-3.37,6.59-10.27,3.22-15.41l-0.02-0.02c-4.09-6.24-5.63-13.86-4.07-21.15C247.38,160.99,245.05,146.16,236.77,133.5z"/>
					<path class="st0" d="M265.83,243.68l-30.76,20.14c-2.5,1.63-5.84,0.93-7.47-1.56l-18.04-27.56l39.8-26.05l18.04,27.56
						C269.02,238.7,268.32,242.05,265.83,243.68z"/>
					
						<rect x="208.04" y="220.96" transform="matrix(0.8367 -0.5477 0.5477 0.8367 -85.5305 163.7483)" class="st4" width="47.57" height="8.67"/>
					<path class="st4" d="M267.33,242.7l-33.77,22.1l0,0c2.18,3.33,6.65,4.26,9.98,2.08l21.71-14.21
						C268.58,250.5,269.51,246.03,267.33,242.7L267.33,242.7z"/>
					<path class="st0" d="M261.17,262.96l-6.58,4.31c-1.52,1-3.43,1.21-5.14,0.58l-4.71-1.74l19.3-12.63l-0.29,5.01
						C263.65,260.3,262.69,261.96,261.17,262.96z"/>
					<line class="st6" x1="219.2" y1="249.44" x2="255.84" y2="218.57"/>
					<line class="st6" x1="223.2" y1="255.56" x2="259.85" y2="224.69"/>
					<line class="st6" x1="227.21" y1="261.68" x2="263.85" y2="230.81"/>
					<line class="st6" x1="237.38" y1="262.61" x2="267.86" y2="236.93"/>
					<path class="st6" d="M222.39,225.17l-7.76-11.86c-1.82-2.78-1.04-6.5,1.74-8.31l3.42-2.24c2.78-1.82,6.5-1.04,8.31,1.74
						l8.28,12.64"/>
					<line class="st6" x1="215.16" y1="206.22" x2="173.32" y2="174.62"/>
					<line class="st6" x1="221.05" y1="202.37" x2="208.83" y2="151.38"/>
					<path class="st6" d="M176.6,177.1c0.12-8.3,10.76-5.79,7.33-2.43c-3.43,3.36-6.06-3.7-0.06-9.87c5.99-6.17,9.34-0.03,5.92,2.65
						c-3.42,2.69-7.11-4.8,1.73-9.46c8.84-4.66,14.57,1.5,9.48,3.7c-5.09,2.2-4.53-8.49,8.33-8.25"/>
					<g>
						<line class="st7" x1="260.77" y1="116.12" x2="240.87" y2="129.15"/>
						<line class="st7" x1="140.08" y1="195.11" x2="120.18" y2="208.14"/>
					</g>
					<g>
						<line class="st7" x1="228.34" y1="87.14" x2="217.62" y2="108.37"/>
						<line class="st7" x1="163.33" y1="215.89" x2="152.6" y2="237.12"/>
					</g>
					<g>
						<line class="st7" x1="185.78" y1="78.25" x2="187.11" y2="102"/>
					</g>
					<g>
						<line class="st7" x1="144.47" y1="91.84" x2="157.49" y2="111.74"/>
					</g>
					<g>
						<line class="st7" x1="115.48" y1="124.26" x2="136.71" y2="134.98"/>
					</g>
					<g>
						<line class="st7" x1="106.6" y1="166.83" x2="130.34" y2="165.5"/>
						<line class="st7" x1="250.61" y1="158.76" x2="274.35" y2="157.43"/>
					</g>
				</g>
			</g>
			<path class="st9" d="M70.45,207.94c1.82-0.85,3.03-2.19,2.71-2.53c-0.32-0.34-2.43,0.72-2.43,0.72"/>
			<path class="st9" d="M123.01,218.87c-1.84-0.81-3.08-2.12-2.77-2.47c0.31-0.35,2.44,0.66,2.44,0.66"/>
		</g>
		<rect x="31.72" y="409.37" class="st10" width="88" height="14.98"/>
		<rect x="49.32" y="394.39" class="st22" width="70.4" height="14.98"/>
		<rect x="66.92" y="379.42" class="st10" width="52.8" height="14.98"/>
		<rect x="84.52" y="364.44" class="st22" width="35.2" height="14.98"/>
		<rect x="56.66" y="409.37" class="st23" width="73.26" height="14.98"/>
		<rect x="74.26" y="394.39" class="st23" width="55.66" height="14.98"/>
		<rect x="91.86" y="379.42" class="st23" width="38.06" height="14.98"/>
		<rect x="109.46" y="364.44" class="st23" width="20.46" height="14.98"/>
		<line class="st13" x1="66.92" y1="379.42" x2="109.46" y2="379.42"/>
		<line class="st13" x1="49.42" y1="394.36" x2="91.96" y2="394.36"/>
		<line class="st13" x1="31.72" y1="409.37" x2="74.26" y2="409.37"/>
		<g>
			
				<rect x="364.44" y="409.37" transform="matrix(-1 -1.224647e-16 1.224647e-16 -1 821.434 833.711)" class="st2" width="92.55" height="14.98"/>
			
				<rect x="364.44" y="394.39" transform="matrix(-1 -1.224647e-16 1.224647e-16 -1 824.2067 803.7605)" class="st2" width="95.33" height="14.98"/>
			
				<rect x="364.44" y="379.42" transform="matrix(-1 -1.224647e-16 1.224647e-16 -1 794.0643 773.81)" class="st2" width="65.18" height="14.98"/>
			
				<rect x="364.44" y="364.44" transform="matrix(-1 -1.224647e-16 1.224647e-16 -1 763.9218 743.8595)" class="st2" width="35.04" height="14.98"/>
			
				<rect x="414.25" y="409.37" transform="matrix(-1 -1.224647e-16 1.224647e-16 -1 887.4581 833.7109)" class="st2" width="58.97" height="14.98"/>
			
				<rect x="403.39" y="394.39" transform="matrix(-1 -1.224647e-16 1.224647e-16 -1 865.7538 803.7604)" class="st2" width="58.97" height="14.98"/>
			
				<rect x="392.54" y="379.42" transform="matrix(-1 -1.224647e-16 1.224647e-16 -1 844.0499 773.8099)" class="st2" width="58.97" height="14.98"/>
			
				<rect x="381.69" y="364.44" transform="matrix(-1 -1.224647e-16 1.224647e-16 -1 822.3457 743.8594)" class="st2" width="58.97" height="14.98"/>
			<line class="st24" x1="440.66" y1="379.42" x2="381.69" y2="379.42"/>
			<line class="st24" x1="462.36" y1="394.36" x2="403.39" y2="394.36"/>
			<line class="st24" x1="473.21" y1="409.37" x2="414.25" y2="409.37"/>
		</g>
	</g>
	<g>
		<path class="st25" d="M204.32,280.5c-0.92-2.19-0.61-4.47,0.31-4.29c0.51,0.1,0.28,2,0.28,2"/>
		<path class="st25" d="M140.8,286.74c1.83-1.51,2.62-3.67,1.73-3.94c-0.5-0.15-1.18,1.64-1.18,1.64"/>
		<g>
			<defs>
				<path id="SVGID_5_" d="M162.68,270.04c-9.68-19.25,19.74-18.37,18.55-8.87c-1.19,9.49-6.7,26.83,18.29,18.61
					c6.92-2.27,13.09-4.28,18.5-5.98c-5.47-17.07-8.4-27.74-7.55-31.57c2.77-12.55,22.55,10.03,25.69-3.75
					c3.14-13.77,0.48-19.23-12.48-16.4c-12.96,2.82-19.6-0.46-15.03-20.36c0.61-2.64,1.29-5.5,1.98-8.46
					c-0.41-0.12-0.83-0.24-1.25-0.37c-33.09-10.01-34.12,1.73-33.6,8.84c0.52,7.11,10.47,21.63-10.96,19.99
					c-15.14-1.16-10.71-7.5-6.1-21.76c4.05-12.53-7.2-9.72-30.95-0.01l5.9,81.1C159.46,288.18,171.59,287.76,162.68,270.04z"/>
			</defs>
			<clipPath id="SVGID_14_">
				<use xlink:href="#SVGID_5_"  style="overflow:visible;"/>
			</clipPath>
			<path class="st26" d="M162.68,270.04c-9.68-19.25,19.74-18.37,18.55-8.87c-1.19,9.49-6.7,26.83,18.29,18.61
				c6.92-2.27,13.09-4.28,18.5-5.98c-5.47-17.07-8.4-27.74-7.55-31.57c2.77-12.55,22.55,10.03,25.69-3.75
				c3.14-13.77,0.48-19.23-12.48-16.4c-12.96,2.82-19.6-0.46-15.03-20.36c0.61-2.64,1.29-5.5,1.98-8.46
				c-0.41-0.12-0.83-0.24-1.25-0.37c-33.09-10.01-34.12,1.73-33.6,8.84c0.52,7.11,10.47,21.63-10.96,19.99
				c-15.14-1.16-10.71-7.5-6.1-21.76c4.05-12.53-7.2-9.72-30.95-0.01l5.9,81.1C159.46,288.18,171.59,287.76,162.68,270.04z"/>
			<path class="st27" d="M162.68,270.04c-9.68-19.25,19.74-18.37,18.55-8.87c-1.19,9.49-6.7,26.83,18.29,18.61
				c6.92-2.27,13.09-4.28,18.5-5.98c-5.47-17.07-8.4-27.74-7.55-31.57c2.77-12.55,22.55,10.03,25.69-3.75
				c3.14-13.77,0.48-19.23-12.48-16.4c-12.96,2.82-19.6-0.46-15.03-20.36c0.61-2.64,1.29-5.5,1.98-8.46
				c-0.41-0.12-0.83-0.24-1.25-0.37c-33.09-10.01-34.12,1.73-33.6,8.84c0.52,7.11,10.47,21.63-10.96,19.99
				c-15.14-1.16-10.71-7.5-6.1-21.76c4.05-12.53-7.2-9.72-30.95-0.01l5.9,81.1C159.46,288.18,171.59,287.76,162.68,270.04z"/>
			<g class="st28">
				<path class="st21" d="M306.91,205.26c-2.2-30.23-28.69-52.89-58.99-50.26c-29.51,2.56-51.72,28.65-49.55,58.19
					c1.09,14.91,8.1,27.98,18.56,37.07c5.75,5,9.39,11.98,9.95,19.57l0,0.03c0.45,6.13,5.78,10.74,11.91,10.3l37.81-2.75
					c6.13-0.45,10.74-5.78,10.3-11.91l0-0.03c-0.54-7.44,1.81-14.85,6.72-20.47C302.84,234.45,308,220.35,306.91,205.26z"/>
				<path class="st3" d="M278.81,315.7l-36.67,2.67c-2.97,0.22-5.56-2.02-5.78-4.99l-2.39-32.86l47.44-3.45l2.39,32.86
					C284.02,312.9,281.79,315.48,278.81,315.7z"/>
				
					<rect x="234.23" y="278.78" transform="matrix(0.9974 -0.0725 0.0725 0.9974 -19.8562 19.4604)" class="st4" width="47.57" height="8.67"/>
				<path class="st4" d="M280.6,315.57l-40.25,2.93l0,0c0.29,3.97,3.74,6.95,7.71,6.67l25.88-1.88
					C277.91,322.99,280.89,319.54,280.6,315.57L280.6,315.57z"/>
				<path class="st5" d="M265.38,330.29l-7.84,0.57c-1.82,0.13-3.59-0.61-4.77-1.99l-3.27-3.81l23-1.67l-2.68,4.24
					C268.84,329.17,267.2,330.15,265.38,330.29z"/>
				<line class="st6" x1="235.25" y1="298.09" x2="282.28" y2="288.89"/>
				<line class="st6" x1="235.78" y1="305.39" x2="282.81" y2="296.19"/>
				<line class="st6" x1="236.31" y1="312.68" x2="283.34" y2="303.48"/>
				<line class="st6" x1="244.75" y1="318.43" x2="283.87" y2="310.78"/>
				<path class="st6" d="M249.83,278.42l-1.03-14.14c-0.24-3.31,2.25-6.19,5.55-6.43l4.07-0.3c3.31-0.24,6.19,2.25,6.43,5.55
					l1.1,15.07"/>
				<line class="st6" x1="252.71" y1="258.35" x2="231.47" y2="210.41"/>
				<line class="st6" x1="259.72" y1="257.84" x2="273.8" y2="207.33"/>
				<path class="st6" d="M233.14,214.16c4.13-7.2,12.22,0.16,7.59,1.44c-4.63,1.27-3.5-6.17,4.74-8.66c8.24-2.49,8.18,4.5,3.89,5.19
					c-4.29,0.69-3.88-7.65,6.11-7.43c9.99,0.22,12.01,8.38,6.49,7.84c-5.52-0.54,0.16-9.62,11.29-3.17"/>
				<g>
					<line class="st7" x1="336.32" y1="201.72" x2="312.6" y2="203.45"/>
					<line class="st7" x1="192.47" y1="212.19" x2="168.74" y2="213.91"/>
				</g>
				<g>
					<line class="st7" x1="322.05" y1="160.65" x2="302.37" y2="174"/>
					<line class="st7" x1="202.7" y1="241.64" x2="183.02" y2="254.99"/>
				</g>
				<g>
					<line class="st7" x1="289.15" y1="132.21" x2="278.78" y2="153.61"/>
				</g>
				<g>
					<line class="st7" x1="246.44" y1="124.03" x2="248.16" y2="147.75"/>
				</g>
				<g>
					<line class="st7" x1="205.36" y1="138.3" x2="218.72" y2="157.98"/>
				</g>
				<g>
					<line class="st7" x1="176.92" y1="171.2" x2="198.33" y2="181.57"/>
					<line class="st7" x1="306.74" y1="234.07" x2="328.14" y2="244.44"/>
				</g>
			</g>
			<path id="SVGID_4_" class="st29" d="M133.66,281.05c25.8,7.13,37.93,6.71,29.02-11.01c-9.68-19.25,19.74-18.37,18.55-8.87
				c-1.19,9.49-6.7,26.83,18.29,18.61c6.92-2.27,13.09-4.28,18.5-5.98c-5.47-17.07-8.4-27.74-7.55-31.57
				c2.77-12.55,22.55,10.03,25.69-3.75c3.14-13.77,0.48-19.23-12.48-16.4c-12.96,2.82-19.6-0.46-15.03-20.36
				c0.61-2.64,1.29-5.5,1.98-8.46"/>
		</g>
		<g>
			<polygon class="st25" points="163.02,300.62 167.71,293.19 173.36,297.15 170.29,304.58 166.5,304.89 			"/>
			<path class="st25" d="M167.12,286.9c-2.93,6.98,1.08,13.28,7.71,14.39c6.63,1.11,5.97-11.68,6.2-14.61
				C181.26,283.74,172.03,275.18,167.12,286.9z"/>
			<path class="st25" d="M170.73,386.19c-0.4,14.18-1.14,16.6-2.84,53.05c-1.32,0.11-4.3,0.37-4.3,0.37l-6.46-45.41"/>
			<path class="st2" d="M163.59,439.61c0,0-0.78,1.84-0.18,3.65c2.5,0.67,10.94,1.42,10.94,1.42s0.47-1.65-1.8-2.84
				c-3.39-1.78-4.67-2.59-4.67-2.59L163.59,439.61z"/>
			<path class="st25" d="M163.59,439.61c0,0,3.46,2.69,6.99,1.17c-2.69-1.54-2.71-1.8-2.71-1.8L163.59,439.61z"/>
			<path class="st25" d="M132.78,399.36c-13.84-3.11,4.38,1.77-31.07-6.9c0.14-1.32,0.46-4.29,0.46-4.29l40.93,2.01"/>
			<path class="st2" d="M102.18,388.16c0,0-1.66-1.12-3.55-0.88c-1.14,2.33-3.49,10.47-3.49,10.47s1.53,0.78,3.14-1.22
				c2.4-2.99,3.44-4.08,3.44-4.08L102.18,388.16z"/>
			<path class="st25" d="M102.18,388.16c0,0-3.3,2.88-2.49,6.63c2.03-2.34,2.28-2.32,2.28-2.32L102.18,388.16z"/>
			<path class="st25" d="M141.34,284.44c0,0,1.9-5.08,1.01-5.26c-0.97-0.22-1.82,2.72-1.82,2.72s1.54-3.29,0.5-3.52
				c-0.9-0.2-1.8,3.25-1.8,3.25s0.83-3.06,0.15-3.34c-0.68-0.28-1.56,3.22-1.56,3.22s0.66-2.35-0.06-2.6
				c-0.64-0.22-1.23,2.6-1.31,2.95c-0.35,1.57-0.61,4.05,0.58,5.36c1.13,1.25,2.71,0.43,3.77-0.49"/>
			<path class="st25" d="M136.23,302.74l4.14-18.46l-3.65-0.99c0,0-10.51,21.27-6.34,26.08c2.54,2.93,18.05,1.39,21.91,2.26
				c0.25-2.91,0.54-8.74,1.15-11.5L136.23,302.74z"/>
			<line class="st6" x1="138.31" y1="279.9" x2="137.95" y2="281.2"/>
			<line class="st6" x1="139.59" y1="279.88" x2="139.23" y2="281.64"/>
			<line class="st6" x1="141.3" y1="280.04" x2="140.53" y2="281.91"/>
			<line class="st6" x1="141.73" y1="283.34" x2="141.05" y2="285.15"/>
			<path class="st25" d="M204.91,278.21c0,0,0.69-5.38,1.56-5.12c0.96,0.26,0.34,3.26,0.34,3.26s0.17-3.62,1.2-3.35
				c0.89,0.24,0.08,3.71,0.08,3.71s0.69-3.09,1.42-3.02c0.73,0.07-0.12,3.58-0.12,3.58s0.52-2.39,1.26-2.27
				c0.67,0.1-0.13,2.88-0.22,3.22c-0.42,1.55-1.35,3.87-3.01,4.47c-1.59,0.58-2.59-0.89-3.11-2.19"/>
			<path class="st25" d="M199.86,299.98l5.99-21.46l3.69,0.83c0,0-1.24,20.94-3.28,25.02c-0.56,1.11-14.81,8.82-18.22,10.83
				c-1.13-2.69-3.63-9.46-5.05-11.9L199.86,299.98z"/>
			<line class="st6" x1="209.71" y1="275.61" x2="209.42" y2="276.93"/>
			<line class="st6" x1="208.59" y1="275" x2="208.09" y2="276.72"/>
			<line class="st6" x1="207" y1="274.34" x2="206.81" y2="276.35"/>
			<line class="st6" x1="205.08" y1="277.06" x2="204.84" y2="278.98"/>
			<path class="st0" d="M150.26,336.09c0,0-10.77,11.36-12.78,24.83c-2.01,13.47-5.43,24.03-5.43,24.03l-18.26,0.54l-1.13,14.15
				c0,0,17.59,7.98,28.04,0.58c8.47-6.99,11.92-22.86,11.92-22.86l5.98,52.66l13.22-1.66c0,0,3.62-63.25,0.88-73.1
				c-0.36-13.19-1.49-13.74-1.49-13.74S154.3,338.52,150.26,336.09z"/>
			<path class="st21" d="M151.65,314.16l-4.55,23.32c0,0,18.89,7.61,28.9,5.82c4.28-21.27,4.45-23.51,4.45-23.51l11.55-3.48
				l0.71-15.24l-14.23,2.08l-19.42-3.94l-17.57,2.5l4.4,11.78L151.65,314.16z"/>
			<g>
				<defs>
					<path id="SVGID_2_" d="M151.65,314.16l-4.55,23.32c0,0,18.89,7.61,28.9,5.82c4.28-21.27,4.45-23.51,4.45-23.51l11.55-3.48
						l0.71-15.24l-14.23,2.08l-19.42-3.94l-17.57,2.5l4.4,11.78L151.65,314.16z"/>
				</defs>
				<clipPath id="SVGID_15_">
					<use xlink:href="#SVGID_2_"  style="overflow:visible;"/>
				</clipPath>
				<g class="st30">
					<path class="st7" d="M168.19,343.57c-5.47-3.73-2.02-7.18,0.66-6.41c2.68,0.77-0.19-7.66,5.74-7.66c5.94,0,7.96-2.54,7.96-2.54
						"/>
					<path class="st7" d="M155.06,341.76c0,0,7.43-4.36,3.24-6.49c-4.19-2.13,1.93-10.36-4.86-9.41c-6.8,0.96-8.52,1.1-8.52,1.1"/>
					<path class="st7" d="M148.89,320.27c0,0,8.13,4.07,9.35-0.34c1.22-4.41-2.24-7.6,1.79-8.3c4.03-0.7,8.5-15.39-6.49-17.31"/>
					<path class="st7" d="M148.89,296.94c0,0,2.64,5.09,0,7.82s3.68,7.47,5.79,9.41c2.11,1.93-2,4.52-7.8,3.61"/>
					<path class="st7" d="M176.01,345.2c-4.48-4.6-4.86-10.68,2.22-9.93"/>
					<path class="st7" d="M182.53,299.77c-7.21,5.37-7.68,10.71-2.83,10.93c4.85,0.22,9.26,7.01,5.62,11.28"/>
					<path class="st7" d="M186.66,299.92c-4.21,4.5,11.15,11.71,6.06,21.13"/>
					<path class="st7" d="M185.92,326.97c0,0-8.33-5.66-14.23-1.18c-5.9,4.48-11.41-2.69-5.3-6.48c6.11-3.79-4.78-17.18,6.98-22.16"
						/>
					<path class="st7" d="M144.91,331.03c4.98-0.77,10.15,6.24,5.36,9.73"/>
				</g>
			</g>
			<path class="st31" d="M183.14,289.75c-0.45,1.11-1.59,2.32-3.87,2.85c-2.27,0.52-0.49,4.26-2.6,4.63
				c-2.11,0.37,3.03,9.17-5.51,9.43c-3.47,0.11-10.51,3.63-12.95-1.15c-2.44-4.78-7.5-0.24-6.67-6.29
				c0.83-6.04,4.68-5.62,3.97-10.02c-0.71-4.4,4.62-1.98,5.37-5.45c0.75-3.46,4.69,0.14,6.68-2.76c1.99-2.9,9.67-1.98,12.64,0.54
				C183.03,283.92,184.29,286.91,183.14,289.75z"/>
			<path class="st32" d="M180.44,287.48c0,0,0.38,1.91-1.13,2.38c-1.51,0.47-3.69,1.35-3.43,2.55c0.26,1.2-3.49,1.84-3.19,4.62"/>
			<path class="st32" d="M176.13,286.32c0,0-4.37,1.77-4.07,3.96c0.3,2.2-5.81,3.12-4.72,5.91c1.09,2.79-3.19,6.44-1.34,7.47"/>
			<path class="st32" d="M171.69,283.73c-1.92,0.55-3.01,3.23-5.48,1.8c-2.47-1.43-4.93,2.96-5.31,3.28"/>
			<path class="st32" d="M163.68,288.5c0,0,0.37,2.79-2.47,3.03c-2.84,0.24-5.15,1.94-4.8,3.49"/>
			<path class="st32" d="M163.53,294.2c0,0-4.59,2.17-3.48,5.21c1.11,3.04-0.6,4.58,1.42,5.08"/>
			<path class="st32" d="M168.98,288.92c0,0,2.89-4.53,6-4.52c3.11,0.01,2.77-2.36,2.77-2.36"/>
			<path class="st32" d="M173.1,280.82c0,0-3.17,0.01-4.25,1.69"/>
			<path class="st32" d="M162.89,284.33c-0.93,1.39-4.48,2.46-4.65,4.56"/>
			<path class="st32" d="M166.83,288.75c0,0,0.47,2.15-0.97,2.92"/>
			<path class="st32" d="M158.3,295.59c0,0-2.07,2.35-1.63,4.27"/>
			<path class="st32" d="M168.6,305.57c0,0,1.13-2.33,0.81-4.26s1.03-5.74,1.35-5.99"/>
			<path class="st32" d="M180.7,285.37c0,0-1.41,0.27-2.01,1.89"/>
			<line class="st6" x1="151.73" y1="366.12" x2="152.72" y2="378.25"/>
			<path class="st6" d="M146.88,340.22c0,0,7.58,5.74,25.29,5.77"/>
			<line class="st6" x1="157.69" y1="422.03" x2="172.46" y2="420.39"/>
			<line class="st6" x1="121.38" y1="385.36" x2="120.06" y2="401.96"/>
			<line class="st33" x1="151.65" y1="314.16" x2="152.87" y2="307.24"/>
			<line class="st33" x1="189.74" y1="301.51" x2="189.79" y2="316.98"/>
			<line class="st33" x1="148.89" y1="313.73" x2="145.61" y2="301.13"/>
			<line class="st33" x1="180.45" y1="319.79" x2="176.01" y2="321.05"/>
		</g>
	</g>
	<g>
		<polygon class="st34" points="430.51,349.97 437.19,360.56 442.54,357.99 437.23,347.56 		"/>
		<path class="st35" d="M437.19,360.56c-0.36,0.53-0.96,1.31-1.83,2.1c-1.95,1.77-3.75,2.2-3.83,3.41
			c-0.02,0.28,0.05,0.71,0.51,1.26c3.25,1.36,12.5-3.39,13.35-5.37c-0.28-2.79-2.84-3.97-2.84-3.97L437.19,360.56z"/>
		<path class="st36" d="M445.2,361.05c0,0-5.33,4.95-13.51,5.78"/>
		<polygon class="st34" points="378.66,344.95 380.7,357.31 386.63,357.01 385.78,345.34 		"/>
		<path class="st35" d="M380.7,357.31c-0.54,0.34-1.39,0.83-2.51,1.22c-2.49,0.87-4.31,0.57-4.85,1.66
			c-0.13,0.25-0.23,0.67-0.02,1.36c2.47,2.52,12.83,1.73,14.39,0.22c0.83-2.68-1.08-4.76-1.08-4.76L380.7,357.31z"/>
		<path class="st36" d="M387.9,360.86c0,0-6.83,2.5-14.69,0.08"/>
		<path class="st37" d="M382.71,277.22c-2.19,0.92-3.56,2.77-2.78,3.29c0.43,0.29,1.6-1.24,1.6-1.24s-3.26,4.33-2.46,4.75
			c0.87,0.49,2.52-2.09,2.52-2.09s-2.41,2.71-1.48,3.23c0.81,0.45,2.65-2.6,2.65-2.6s-1.66,2.7-1.09,3.16
			c0.58,0.46,2.42-2.65,2.42-2.65s-1.3,2.07-0.68,2.51c0.55,0.4,1.92-2.15,2.09-2.45c0.78-1.41,1.73-3.71,0.97-5.3
			C385.73,276.3,383.99,276.65,382.71,277.22z"/>
		<line class="st36" x1="383.15" y1="284.49" x2="383.86" y2="283.34"/>
		<line class="st36" x1="381.92" y1="284.15" x2="382.76" y2="282.56"/>
		<line class="st36" x1="380.33" y1="283.51" x2="381.6" y2="281.93"/>
		<line class="st36" x1="380.85" y1="280.22" x2="382.02" y2="278.67"/>
		<path class="st35" d="M429.04,279.1v39.24l13.57,35.41l-9.44,5.02l-19.18-36.88l-6.2-23.39l-14.16,16.01l-4.13,38.95h-12.39
			c0,0-1.77-41.6,0-45.14c1.77-3.54,20.06-29.21,20.06-29.21H429.04z"/>
		<polygon class="st38" points="397.17,229.24 387.73,257.27 380.94,275.86 389.06,279.1 401.89,260.51 		"/>
		<path class="st39" d="M397.17,229.24v49.87h31.87c0,0,10.03-43.37,5.31-49.87C429.63,222.75,397.17,223.34,397.17,229.24z"/>
		<path class="st36" d="M397.17,235.52c7.31,4.15,14.11-1.72,11.34-2.43c-2.77-0.7-1.77,4.48,4.31,4.67
			c6.08,0.18,6.44-4.16,3.9-4.16c-2.54,0-1.85,7.66,8.2,5.49c10.06-2.17,6.74-6.5,3.68-4.84c-3.06,1.65-0.39,6.65,6.96,4.73"/>
		<path class="st36" d="M394.19,243.6c7.75,4.15,14.95-1.72,12.01-2.43c-2.94-0.7-1.87,4.48,4.56,4.67
			c6.44,0.18,6.82-4.16,4.13-4.16s-1.97,7.66,8.69,5.49c10.66-2.17,7.14-6.5,3.9-4.84c-3.25,1.65-0.41,6.65,7.37,4.73"/>
		<path class="st36" d="M396.47,253.29c7.05,4.15,13.59-1.72,10.92-2.43c-2.67-0.7-1.7,4.48,4.15,4.67c5.85,0.18,6.2-4.16,3.75-4.16
			s-1.79,7.66,7.9,5.49c9.69-2.17,6.49-6.5,3.54-4.84c-2.95,1.65-0.37,6.65,6.7,4.73"/>
		<path class="st36" d="M394.19,261.36c7.17,4.15,13.83-1.72,11.11-2.43c-2.72-0.7-1.73,4.48,4.22,4.67
			c5.96,0.18,6.31-4.16,3.82-4.16c-2.49,0-1.82,7.66,8.04,5.49c9.86-2.17,6.61-6.5,3.6-4.84s-0.38,6.65,6.82,4.73"/>
		<path class="st36" d="M396.47,271.05c6.41,4.15,12.37-1.72,9.94-2.43c-2.43-0.7-1.55,4.48,3.78,4.67
			c5.33,0.18,5.65-4.16,3.42-4.16c-2.23,0-1.63,7.66,7.19,5.49c8.82-2.17,5.91-6.5,3.22-4.84c-2.69,1.65-0.34,6.65,6.1,4.73"/>
		<path class="st40" d="M409.81,209.88c-0.44,2.17-0.02,4.09,0.94,4.29c0.96,0.2,2.1-1.4,2.55-3.58c0.44-2.17,0.02-4.09-0.94-4.29
			C411.39,206.11,410.25,207.71,409.81,209.88z"/>
		<polygon class="st37" points="420.93,226.42 420.29,217.77 413.1,218.3 411.28,225.87 414.83,228.51 		"/>
		<path class="st37" d="M424.83,213.04c-0.73,7.54-7.24,11.18-13.6,9.02c-6.36-2.16,0.27-13.12,1.46-15.81
			C413.87,203.57,426.05,200.4,424.83,213.04z"/>
		<path class="st36" d="M417.77,221.18c0,0-3.46,2.57-7.1,0.66"/>
		<path class="st36" d="M412.61,214.24c-0.25-1.79-2.46-0.16-0.82,1.08"/>
		<path class="st36" d="M412.82,217.01c0,0-1.13,0.43-1.94-0.61"/>
		<path class="st41" d="M415.61,213.68c-0.16,0.49-0.1,0.96,0.15,1.04c0.25,0.08,0.58-0.25,0.74-0.75c0.16-0.49,0.1-0.96-0.15-1.04
			C416.11,212.85,415.77,213.19,415.61,213.68z"/>
		<path class="st41" d="M411.47,212.15c-0.16,0.49-0.1,0.96,0.15,1.04c0.25,0.08,0.58-0.25,0.74-0.75c0.16-0.49,0.1-0.96-0.15-1.04
			C411.96,211.32,411.63,211.66,411.47,212.15z"/>
		<path class="st42" d="M421.74,214.31c0,0-0.9,2.26-0.95,2.85c-1.31-0.4-1.31-0.4-1.31-0.4s0.42-2.41-0.04-3.75
			c-0.46-1.34,1.23-3.04,1.23-3.04s-3.78,1.5-6.2-0.98c-3.88-0.35-4.61-2.1-1.95-4.8c2.52-2.55,6.84-2.04,11.18,0.52
			c2.48,0.97,3.94,4.81,2.39,7.5c-0.26,4.38-1.65,7.68-5.8,8.87C424.66,216.57,424.72,213.7,421.74,214.31z"/>
		<path class="st36" d="M420.15,206.38c0,0-2.87-0.26-3.95,0.71"/>
		<path class="st36" d="M417.96,204.52c0,0-3,0.56-4.16,1.33"/>
		<path class="st36" d="M424.37,206.92c0,0-1.78,0.93-3.27,0.42"/>
		<path class="st36" d="M422.67,205.48c0,0-1.4-0.83-2.63-0.54"/>
		<path class="st36" d="M414.84,207.55c0,0-2.21-0.38-2.48-1.24"/>
		<line class="st36" x1="397.17" y1="237.76" x2="397.17" y2="267.35"/>
		<g>
			<defs>
				<path id="SVGID_8_" d="M375.92,206.41c0.66,16.11-13.9,16.65-22.07,8.78c-8.17-7.88,11.02-19.81,6.55-27.06
					c-3.01-4.87-18.35-3.24-33.65-1.56c0.9,8.35,1.94,16.92,2.04,23.68c0.28,18.33-14.77,10.76-21.79,6.53
					c-12.33-7.43-19.29,28.69,2.91,19.17c15.46-6.63,21.68,2.17,4.16,31.72c17.28,8.72,37.21,17.58,33.84,2.09
					c-4.04-18.59,0.68-21.24,10.65-19.88c11.91,1.63,10.32,8.63,6.96,14.9c-3.25,6.07-12.27,22.9,31.59,17.86l14.12-82.27
					C380.24,182.58,375.3,191.36,375.92,206.41z"/>
			</defs>
			<clipPath id="SVGID_16_">
				<use xlink:href="#SVGID_8_"  style="overflow:visible;"/>
			</clipPath>
			<path class="st43" d="M375.92,206.41c0.66,16.11-13.9,16.65-22.07,8.78c-8.17-7.88,11.02-19.81,6.55-27.06
				c-3.01-4.87-18.35-3.24-33.65-1.56c0.9,8.35,1.94,16.92,2.04,23.68c0.28,18.33-14.77,10.76-21.79,6.53
				c-12.33-7.43-19.29,28.69,2.91,19.17c15.46-6.63,21.68,2.17,4.16,31.72c17.28,8.72,37.21,17.58,33.84,2.09
				c-4.04-18.59,0.68-21.24,10.65-19.88c11.91,1.63,10.32,8.63,6.96,14.9c-3.25,6.07-12.27,22.9,31.59,17.86l14.12-82.27
				C380.24,182.58,375.3,191.36,375.92,206.41z"/>
			<g class="st44">
				<path class="st45" d="M340,208.91c5.13-29.87-15.15-58.23-45.19-62.96c-29.26-4.6-57.09,15.39-62.08,44.59
					c-2.52,14.74,1.15,29.11,9.11,40.45c4.38,6.23,6.24,13.88,4.95,21.39l0,0.03c-1.04,6.06,3.03,11.82,9.09,12.86l37.36,6.41
					c6.06,1.04,11.82-3.03,12.86-9.09l0-0.03c1.26-7.35,5.32-13.98,11.44-18.25C329.04,236.26,337.44,223.82,340,208.91z"/>
				<path class="st46" d="M286.2,309.36l-36.24-6.22c-2.94-0.5-4.91-3.3-4.41-6.23l5.57-32.47l46.88,8.05l-5.57,32.47
					C291.93,307.89,289.14,309.86,286.2,309.36z"/>
				
					<rect x="250.05" y="268.4" transform="matrix(0.9856 0.1692 -0.1692 0.9856 50.0873 -42.3956)" class="st47" width="47.57" height="8.67"/>
				<path class="st47" d="M287.97,309.66l-39.78-6.83l0,0c-0.67,3.92,1.96,7.65,5.88,8.32l25.57,4.39
					C283.57,316.22,287.3,313.59,287.97,309.66L287.97,309.66z"/>
				<path class="st48" d="M269.66,320.29l-7.75-1.33c-1.79-0.31-3.34-1.45-4.16-3.08l-2.26-4.48l22.73,3.9l-3.62,3.47
					C273.29,320.04,271.46,320.6,269.66,320.29z"/>
				<line class="st36" x1="248.15" y1="281.8" x2="296.01" y2="284.17"/>
				<line class="st36" x1="246.91" y1="289.01" x2="294.77" y2="291.38"/>
				<line class="st36" x1="245.67" y1="296.22" x2="293.53" y2="298.59"/>
				<line class="st36" x1="252.49" y1="303.83" x2="292.29" y2="305.8"/>
				<path class="st36" d="M267.02,266.21l2.4-13.97c0.56-3.27,3.67-5.46,6.94-4.9l4.03,0.69c3.27,0.56,5.46,3.67,4.9,6.94
					l-2.56,14.89"/>
				<line class="st36" x1="274.64" y1="247.42" x2="265.54" y2="195.78"/>
				<line class="st36" x1="281.58" y1="248.61" x2="305.37" y2="202.96"/>
				<path class="st36" d="M266.26,199.83c5.74-5.99,11.82,3.09,7.02,3.22c-4.8,0.12-1.92-6.83,6.68-7.27s6.86,6.34,2.53,5.98
					s-1.93-8.36,7.71-5.75c9.64,2.61,9.64,11.02,4.42,9.17c-5.22-1.85,0.46-9.3,9.72-0.37"/>
				<g>
					<line class="st36" x1="369.41" y1="212.54" x2="345.97" y2="208.51"/>
					<line class="st36" x1="227.25" y1="188.14" x2="203.81" y2="184.11"/>
				</g>
				<g>
					<line class="st36" x1="365.42" y1="169.23" x2="343.11" y2="177.47"/>
					<line class="st36" x1="230.11" y1="219.18" x2="207.8" y2="227.42"/>
				</g>
				<g>
					<line class="st36" x1="340.32" y1="133.72" x2="325.11" y2="152.01"/>
				</g>
				<g>
					<line class="st36" x1="300.82" y1="115.53" x2="296.8" y2="138.97"/>
				</g>
				<g>
					<line class="st36" x1="257.52" y1="119.51" x2="265.76" y2="141.82"/>
				</g>
				<g>
					<line class="st36" x1="222.01" y1="144.62" x2="240.3" y2="159.82"/>
					<line class="st36" x1="332.92" y1="236.83" x2="351.21" y2="252.03"/>
				</g>
			</g>
			<use xlink:href="#SVGID_8_"  style="overflow:visible;fill:none;stroke:#3D4D97;stroke-miterlimit:10;"/>
		</g>
		<g>
			<path class="st37" d="M395.1,278.36c-2.37,0.15-4.27,1.44-3.71,2.19c0.31,0.41,1.92-0.64,1.92-0.64s-4.51,3.01-3.89,3.67
				c0.66,0.75,3.07-1.14,3.07-1.14s-3.17,1.77-2.47,2.56c0.61,0.69,3.36-1.58,3.36-1.58s-2.46,2-2.07,2.62
				c0.39,0.62,3.15-1.7,3.15-1.7s-1.91,1.52-1.47,2.14c0.39,0.56,2.52-1.39,2.78-1.63c1.2-1.07,2.86-2.93,2.67-4.69
				C398.26,278.49,396.5,278.24,395.1,278.36z"/>
			<line class="st36" x1="393.12" y1="285.37" x2="394.17" y2="284.52"/>
			<line class="st36" x1="392.07" y1="284.64" x2="393.39" y2="283.42"/>
			<line class="st36" x1="390.78" y1="283.51" x2="392.49" y2="282.44"/>
			<line class="st36" x1="392.35" y1="280.58" x2="393.97" y2="279.5"/>
			<path class="st35" d="M398.61,271.71l-4.97,5.03l5.61,6.79c0,0,3.03-1.92,7.08-4.57C403.48,277,400.93,274.64,398.61,271.71z"/>
		</g>
		<path class="st36" d="M406.11,279.1c6.35-4.14,15.35-10.14,19.1-13.28c6.08-5.09,8.93-20.06,8.93-20.06"/>
		<polyline class="st36" points="425.21,234.25 410.84,259.33 397.17,273.17 		"/>
		<line class="st36" x1="407.79" y1="298.5" x2="403.13" y2="296.64"/>
		<line class="st36" x1="377.27" y1="345.79" x2="390.31" y2="345.79"/>
		<line class="st36" x1="429.62" y1="351.95" x2="440.24" y2="347.56"/>
		<path class="st36" d="M424,279.72c0,0-2.49,36.55-0.57,40.38c1.91,3.83,12.19,29.37,12.19,29.37"/>
		<path id="SVGID_10_" class="st49" d="M341.05,185.19c-4.5,0.32-9.4,0.85-14.3,1.39c0.9,8.35,1.94,16.92,2.04,23.68
			c0.28,18.33-14.77,10.76-21.79,6.53c-12.33-7.43-19.29,28.69,2.91,19.17c15.46-6.63,21.68,2.17,4.16,31.72
			c12.48,6.3,26.34,12.67,31.81,9.89"/>
	</g>
	<g>
		<g>
			<path class="st9" d="M309.17,326.78c-3.87,7.08-14.6,21.24-14.6,21.24l2.65,1.99c0,0,16.62-12.94,19.1-17.75
				c0.96-1.87,1.85-6.08,2.58-10.52c-3.21-0.11-6.35-0.62-9.33-1.86C309.4,322.24,309.28,324.6,309.17,326.78z"/>
			<path class="st10" d="M314.27,300.85c-3.06,2.36-4.14,10.79-4.7,19.02c2.99,1.24,6.12,1.75,9.33,1.86
				c1.14-6.98,1.89-14.54,1.89-14.54L314.27,300.85z"/>
			<path class="st9" d="M294.36,345.88c-2.35,0.34-4.14,1.78-3.52,2.48c0.35,0.39,1.86-0.79,1.86-0.79s-4.25,3.36-3.59,3.97
				c0.71,0.69,2.97-1.38,2.97-1.38s-3.02,2.01-2.25,2.75c0.67,0.64,3.22-1.85,3.22-1.85s-2.3,2.19-1.86,2.78
				c0.44,0.59,3.01-1.94,3.01-1.94s-1.78,1.67-1.3,2.25c0.43,0.52,2.4-1.59,2.64-1.84c1.11-1.16,2.62-3.15,2.28-4.88
				C297.51,345.76,295.74,345.65,294.36,345.88z"/>
			<line class="st6" x1="292.94" y1="353.02" x2="293.92" y2="352.09"/>
			<line class="st6" x1="291.83" y1="352.38" x2="293.05" y2="351.06"/>
			<line class="st6" x1="290.46" y1="351.35" x2="292.08" y2="350.16"/>
			<line class="st6" x1="291.8" y1="348.31" x2="293.32" y2="347.11"/>
		</g>
		<path class="st50" d="M312.36,276.84c-4.28,3.07-6.32,11.39,2.81,16.9c9.13,5.51,13.93,11.71,22.6,9.72
			c8.67-1.99,5.89-11.35,0.16-12.19c-5.74-0.84-5.49-11.5-9.33-11.23C324.76,280.31,320.91,270.71,312.36,276.84z"/>
		<polygon class="st9" points="326.7,295.77 322.61,288 316.66,291.49 319.13,299.15 322.89,299.76 		"/>
		<path class="st9" d="M324.28,282.89c2.37,7.19-2.13,13.15-8.83,13.73c-6.7,0.58-5.02-12.12-5.02-15.06
			C310.44,278.62,320.31,270.81,324.28,282.89z"/>
		<path class="st6" d="M321.09,293.17c0,0-2.13,3.75-6.23,3.46"/>
		<path class="st6" d="M312.66,289.57c-1.08-0.5-1.4,0.38-0.32,1.32"/>
		<path class="st6" d="M314.66,291.94c0,0-1.56,0.92-2.73,0.29"/>
		<path class="st14" d="M314.63,287.85c0.05,0.52,0.3,0.92,0.56,0.89c0.26-0.02,0.43-0.47,0.38-0.98s-0.3-0.92-0.56-0.89
			C314.75,286.89,314.58,287.33,314.63,287.85z"/>
		<path class="st14" d="M310.77,288.12c0.05,0.52,0.3,0.92,0.56,0.89c0.26-0.02,0.43-0.47,0.38-0.98c-0.05-0.52-0.3-0.92-0.56-0.89
			C310.89,287.16,310.72,287.6,310.77,288.12z"/>
		<path class="st9" d="M341.03,385.19c1,11.61,5.64,14.27,39.49,7.96c0-1.33,0-4.31,0-4.31l-28.21-3.65"/>
		<path class="st0" d="M380.52,388.84c0,0,1.77-0.94,3.62-0.49c0.89,2.43,2.35,10.78,2.35,10.78s-1.6,0.61-2.99-1.55
			c-2.07-3.22-2.99-4.42-2.99-4.42V388.84z"/>
		<path class="st9" d="M380.52,388.84c0,0,2.98,3.22,1.76,6.86c-1.76-2.55-2.02-2.55-2.02-2.55L380.52,388.84z"/>
		<path class="st9" d="M324.06,377.11c0.33,14.18,1.06,16.6,2.58,53.06c1.32,0.12,4.3,0.39,4.3,0.39l6.68-45.38"/>
		<path class="st0" d="M330.94,430.57c0,0,0.78,1.85,0.16,3.65c-2.5,0.66-10.95,1.36-10.95,1.36s-0.46-1.65,1.81-2.83
			c3.4-1.76,4.68-2.57,4.68-2.57L330.94,430.57z"/>
		<path class="st9" d="M330.94,430.57c0,0-3.47,2.67-6.99,1.13c2.7-1.52,2.72-1.78,2.72-1.78L330.94,430.57z"/>
		<path class="st0" d="M346.34,330.43c0,0,7.96,5.64,7.96,18.92s0,36.26,0,36.26l-29.72,5.22c0,0-4.46-43.14-2.14-55.42
			C329.75,333.09,346.34,330.43,346.34,330.43z"/>
		<path class="st2" d="M312.49,303.88c0.36-5.35,17.32-11.87,24.62-7.88c7.3,3.98,6.24,29.12,9.23,34.43
			c-8.3,7.3-23.89,4.98-23.89,4.98s1.66-11.95-1.99-15.93C316.8,315.5,311.49,318.49,312.49,303.88z"/>
		<path class="st10" d="M330.84,297.74l-6.16,10.18c2.08,1.92,4.38,3.8,6.76,5.48c4.3-4.6,8.93-10.35,8.93-10.35L330.84,297.74z"/>
		<path class="st9" d="M318.74,297.87l5.33,7.01l2.42-9.6C326.48,295.28,321.67,295.5,318.74,297.87z"/>
		<line class="st13" x1="324.68" y1="307.92" x2="329.99" y2="300.35"/>
		<line class="st13" x1="331.43" y1="313.4" x2="336.66" y2="307.44"/>
		<path class="st13" d="M315.49,307.44c0,0,2.09,1.54,2.2,5.46"/>
		<path class="st13" d="M316.59,299.02l2.31,3.8l0.84-1.23l4.32,3.3l2.56-5.41l2.29,0.52c0,0,0.38-3.85-0.12-5.07"/>
		<path class="st6" d="M322.23,336.81c0,0,18.17,3.08,25-5.64"/>
		<path class="st51" d="M316.59,282.96c0,0,1.93,5,4.87,4.92c0.59-4.41,5.18-2.33,2.61,2.9c3.16-0.68,3.32-4.38,0.6-9.96
			s-11.63-7.58-14.43-1.31C307.45,285.77,310.28,286.59,316.59,282.96z"/>
		<path class="st32" d="M310.24,283.24c0,0,4.23,0,5.91-3.2"/>
		<path class="st32" d="M313.2,280.47c0,0,1.31-2.93,4.94-2.22"/>
		<path class="st32" d="M318.14,280.7c0,0,0.27,2.4,2.94,2.39"/>
		<path class="st32" d="M319.61,279.76c0,0,2.24-0.4,4.11,1.37"/>
		<path class="st32" d="M322.61,278.28c0,0,4,1.29,5.21,4.64"/>
		<path class="st32" d="M325.22,283.86c0,0,1.69,3.51,5.18,3.85"/>
		<path class="st32" d="M327.51,290.21c0,0,2.22,2.27,5.74,2.39"/>
		<path class="st32" d="M333.25,291.27c0,0,3.75,0.01,5.19,2.27"/>
		<path class="st32" d="M328.41,284.68c0,0,2.54-0.43,3.43,1.33"/>
		<path class="st32" d="M313.42,278.13c0,0,3.18-2.4,5.32-1.65"/>
		<g>
			<defs>
				<path id="SVGID_3_" d="M346.34,330.43c0,0,7.96,5.64,7.96,18.92s0,36.26,0,36.26l-29.72,5.22c0,0-4.46-43.14-2.14-55.42
					C329.75,333.09,346.34,330.43,346.34,330.43z"/>
			</defs>
			<clipPath id="SVGID_17_">
				<use xlink:href="#SVGID_3_"  style="overflow:visible;"/>
			</clipPath>
			<g class="st52">
				<path class="st53" d="M317.69,338.86c9.79,3.45,27.73,3.94,36.35-8.7"/>
				<path class="st53" d="M317.91,344.2c8.71,3.06,27.75,3.31,36.7-8.52"/>
				<path class="st53" d="M318.12,349.54c7.62,2.68,27.76,2.68,37.06-8.34"/>
				<path class="st53" d="M318.33,354.88c6.53,2.3,27.78,2.05,37.42-8.16"/>
				<path class="st53" d="M318.55,360.23c5.44,1.91,27.79,1.42,37.77-7.98"/>
				<path class="st53" d="M318.76,365.57c4.35,1.53,27.81,0.79,38.13-7.8"/>
				<path class="st53" d="M318.97,370.91c3.26,1.15,27.83,0.16,38.49-7.62"/>
				<path class="st53" d="M319.19,376.25c2.18,0.77,27.84-0.47,38.84-7.44"/>
				<path class="st53" d="M319.4,381.59c1.09,0.38,27.86-1.09,39.2-7.26"/>
				<path class="st53" d="M319.61,386.93c0,0,27.87-1.72,39.56-7.09"/>
			</g>
		</g>
		<g>
			<defs>
				<path id="SVGID_6_" d="M297.5,328.27c13.89,5.63,19.89,10.51,22.14-4.5c3.19-21.26-12.01-12.39-19.14-12.39
					c-7.13,0-18.77-1.88-6.38-34.15c0.03-0.07,0.05-0.14,0.08-0.21c-3.71-1.14-7.32-2.29-10.58-3.29
					c-19.52-6-23.27,0.38-21.39,13.51c1.88,13.14-3.75,15.39-17.26,11.26c-13.51-4.13,10.44-22.22-1.88-25.9
					c-3.38-1.01-12.47,0.62-26.9,4.01c1.02,4.2,2.15,8.79,3.39,13.75c6.38,25.52-10.51,18.77-19.89,16.89
					c-9.38-1.88-12.39,27.4,7.51,19.14c19.35-8.03,17.75,5.95,7.28,34.12h81.21C287.36,335.18,285.07,323.23,297.5,328.27z"/>
			</defs>
			<clipPath id="SVGID_18_">
				<use xlink:href="#SVGID_6_"  style="overflow:visible;"/>
			</clipPath>
			<path class="st54" d="M297.5,328.27c13.89,5.63,19.89,10.51,22.14-4.5c3.19-21.26-12.01-12.39-19.14-12.39
				c-7.13,0-18.77-1.88-6.38-34.15c0.03-0.07,0.05-0.14,0.08-0.21c-3.71-1.14-7.32-2.29-10.58-3.29c-19.52-6-23.27,0.38-21.39,13.51
				c1.88,13.14-3.75,15.39-17.26,11.26c-13.51-4.13,10.44-22.22-1.88-25.9c-3.38-1.01-12.47,0.62-26.9,4.01
				c1.02,4.2,2.15,8.79,3.39,13.75c6.38,25.52-10.51,18.77-19.89,16.89c-9.38-1.88-12.39,27.4,7.51,19.14
				c19.35-8.03,17.75,5.95,7.28,34.12h81.21C287.36,335.18,285.07,323.23,297.5,328.27z"/>
			<g class="st55">
				<path class="st21" d="M309.83,214.7c0-30.31-24.78-54.83-55.19-54.41c-29.62,0.41-53.66,24.82-53.64,54.45
					c0.01,14.95,6.05,28.49,15.83,38.32c5.37,5.4,8.5,12.63,8.5,20.24v0.03c0,6.15,4.99,11.14,11.14,11.14h37.91
					c6.15,0,11.14-4.99,11.14-11.14v-0.03c0-7.46,2.88-14.68,8.18-19.93C303.65,243.52,309.83,229.83,309.83,214.7z"/>
				<path class="st3" d="M273.8,322.81h-36.77c-2.98,0-5.4-2.42-5.4-5.4v-32.94h47.57v32.94
					C279.2,320.39,276.78,322.81,273.8,322.81z"/>
				<rect x="231.63" y="284.47" class="st4" width="47.57" height="8.67"/>
				<path class="st4" d="M275.59,322.81h-40.36l0,0c0,3.98,3.23,7.21,7.21,7.21h25.95C272.37,330.02,275.59,326.79,275.59,322.81
					L275.59,322.81z"/>
				<path class="st5" d="M259.34,336.39h-7.86c-1.82,0-3.53-0.86-4.62-2.33l-2.98-4.04h23.06l-2.98,4.04
					C262.88,335.52,261.16,336.39,259.34,336.39z"/>
				<line class="st6" x1="231.63" y1="302.09" x2="279.2" y2="296.33"/>
				<line class="st6" x1="231.63" y1="309.41" x2="279.2" y2="303.64"/>
				<line class="st6" x1="231.63" y1="316.72" x2="279.2" y2="310.96"/>
				<line class="st6" x1="239.63" y1="323.07" x2="279.2" y2="318.27"/>
				<path class="st6" d="M247.59,283.53v-14.17c0-3.32,2.69-6.01,6.01-6.01h4.08c3.32,0,6.01,2.69,6.01,6.01v15.11"/>
				<line class="st6" x1="251.92" y1="263.72" x2="234.22" y2="214.37"/>
				<line class="st6" x1="258.96" y1="263.72" x2="276.66" y2="214.37"/>
				<path class="st6" d="M235.61,218.23c4.64-6.88,12.18,1.05,7.47,1.98c-4.71,0.93-3.05-6.41,5.35-8.3c8.4-1.88,7.83,5.09,3.5,5.46
					c-4.33,0.38-3.31-7.91,6.63-6.97c9.94,0.94,11.37,9.23,5.9,8.29c-5.46-0.94,0.86-9.59,11.49-2.34"/>
				<g>
					<line class="st6" x1="339.42" y1="213.31" x2="315.64" y2="213.31"/>
					<line class="st6" x1="195.19" y1="213.31" x2="171.4" y2="213.31"/>
				</g>
				<g>
					<line class="st6" x1="328.17" y1="171.3" x2="307.57" y2="183.2"/>
					<line class="st6" x1="203.26" y1="243.42" x2="182.66" y2="255.31"/>
				</g>
				<g>
					<line class="st6" x1="297.42" y1="140.55" x2="285.53" y2="161.15"/>
				</g>
				<g>
					<line class="st6" x1="255.41" y1="129.3" x2="255.41" y2="153.08"/>
				</g>
				<g>
					<line class="st6" x1="213.41" y1="140.55" x2="225.3" y2="161.15"/>
				</g>
				<g>
					<line class="st6" x1="182.66" y1="171.3" x2="203.26" y2="183.2"/>
					<line class="st6" x1="307.57" y1="243.42" x2="328.17" y2="255.31"/>
				</g>
			</g>
			<path class="st56" d="M295.7,360.51c-8.34-25.33-10.63-37.28,1.8-32.24c13.89,5.63,19.89,10.51,22.14-4.5
				c3.19-21.26-12.01-12.39-19.14-12.39c-7.13,0-18.77-1.88-6.38-34.15c0.03-0.07,0.05-0.14,0.08-0.21
				c-3.71-1.14-7.32-2.29-10.58-3.29c-19.52-6-23.27,0.38-21.39,13.51c1.88,13.14-3.75,15.39-17.26,11.26
				c-13.51-4.13,10.44-22.22-1.88-25.9c-3.38-1.01-12.47,0.62-26.9,4.01"/>
		</g>
		<g>
			<path class="st9" d="M301.81,312.78c-1.93-1.38-4.23-1.57-4.26-0.63c-0.02,0.52,1.89,0.71,1.89,0.71s-5.4-0.5-5.34,0.41
				c0.04,0.99,3.11,1.05,3.11,1.05s-3.57-0.62-3.53,0.44c0.04,0.93,3.61,0.89,3.61,0.89s-3.17,0-3.26,0.73
				c-0.09,0.73,3.52,0.67,3.52,0.67s-2.44-0.02-2.49,0.74c-0.05,0.68,2.83,0.51,3.19,0.49c1.61-0.07,4.07-0.47,5.02-1.96
				C304.18,314.87,302.97,313.57,301.81,312.78z"/>
			<path class="st9" d="M321.79,312.68l-22.25,1.16v3.78c0,0,20.7,3.36,25.13,2.25c1.21-0.3,4.05-3.58,6.76-6.47
				c-2.38-1.69-4.68-3.56-6.76-5.48L321.79,312.68z"/>
			<line class="st6" x1="295.87" y1="316.98" x2="297.22" y2="316.98"/>
			<line class="st6" x1="295.51" y1="315.75" x2="297.3" y2="315.63"/>
			<line class="st6" x1="295.22" y1="314.06" x2="297.22" y2="314.31"/>
			<line class="st6" x1="298.29" y1="312.78" x2="300.22" y2="312.96"/>
		</g>
	</g>
</g>
</svg>
